<svg width="480" height="206" viewBox="0 0 480 206" xmlns="http://www.w3.org/2000/svg" xmlns:xlink="http://www.w3.org/1999/xlink"><title>Slice 1</title><defs><linearGradient x1="50%" y1="0%" x2="50%" y2="100%" id="c"><stop stop-color="#FEFEFE" offset="0%"/><stop stop-color="#E4E4E4" offset="48.149%"/><stop stop-color="#CACACA" offset="100%"/></linearGradient><ellipse id="b" cx="80" cy="80" rx="80" ry="80"/><filter x="-50%" y="-50%" width="200%" height="200%" filterUnits="objectBoundingBox" id="a"><feOffset dy="8" in="SourceAlpha" result="shadowOffsetOuter1"/><feGaussianBlur stdDeviation="10" in="shadowOffsetOuter1" result="shadowBlurOuter1"/><feColorMatrix values="0 0 0 0 0 0 0 0 0 0 0 0 0 0 0 0 0 0 0.35 0" in="shadowBlurOuter1"/></filter><radialGradient cy="8.537%" fx="50%" fy="8.537%" r="80.276%" id="e"><stop stop-color="#282C34" offset="0%"/><stop stop-color="#181A1F" offset="100%"/></radialGradient><ellipse id="d" cx="80" cy="80" rx="72.857" ry="72.857"/><filter x="-50%" y="-50%" width="200%" height="200%" filterUnits="objectBoundingBox" id="f"><feGaussianBlur stdDeviation="16" in="SourceAlpha" result="shadowBlurInner1"/><feOffset in="shadowBlurInner1" result="shadowOffsetInner1"/><feComposite in="shadowOffsetInner1" in2="SourceAlpha" operator="arithmetic" k2="-1" k3="1" result="shadowInnerInner1"/><feColorMatrix values="0 0 0 0 0 0 0 0 0 0 0 0 0 0 0 0 0 0 0.25 0" in="shadowInnerInner1"/></filter><path d="M78.741 116.056c15.635 0 24.892-9.052 24.892-19.955 0-9.771-6.069-14.811-14.606-18.205l-8.846-3.806c-6.068-2.366-11.52-4.32-11.52-9.463 0-5.04 4.32-7.92 10.698-7.92 6.788 0 11.52 2.16 16.045 5.76l6.172-7.611c-5.555-5.246-13.372-8.537-21.6-8.537-13.68 0-23.349 8.228-23.349 18.925 0 9.875 7.303 15.12 14.4 17.897l9.154 4.012c6.686 2.777 11.315 4.423 11.315 10.388 0 4.732-4.217 8.126-12.035 8.126-7.097 0-13.782-3.086-18.822-7.611l-6.995 8.125c6.686 6.275 15.635 9.875 25.097 9.875z" id="i"/><filter x="-50%" y="-50%" width="200%" height="200%" filterUnits="objectBoundingBox" id="h"><feOffset dy="12" in="SourceAlpha" result="shadowOffsetOuter1"/><feGaussianBlur stdDeviation="16" in="shadowOffsetOuter1" result="shadowBlurOuter1"/><feColorMatrix values="0 0 0 0 0.0609541483 0 0 0 0 0.0706175193 0 0 0 0 0.0931653912 0 0 0 1 0" in="shadowBlurOuter1"/></filter><filter x="-50%" y="-50%" width="200%" height="200%" filterUnits="objectBoundingBox" id="j"><feGaussianBlur stdDeviation="8" in="SourceAlpha" result="shadowBlurInner1"/><feOffset dy="6" in="shadowBlurInner1" result="shadowOffsetInner1"/><feComposite in="shadowOffsetInner1" in2="SourceAlpha" operator="arithmetic" k2="-1" k3="1" result="shadowInnerInner1"/><feColorMatrix values="0 0 0 0 1 0 0 0 0 1 0 0 0 0 1 0 0 0 1 0" in="shadowInnerInner1"/></filter><path id="l" d="M0 0h115.326v141.984H0z"/><filter x="-50%" y="-50%" width="200%" height="200%" filterUnits="objectBoundingBox" id="k"><feOffset dy="8" in="SourceAlpha" result="shadowOffsetOuter1"/><feGaussianBlur stdDeviation="10" in="shadowOffsetOuter1" result="shadowBlurOuter1"/><feColorMatrix values="0 0 0 0 0 0 0 0 0 0 0 0 0 0 0 0 0 0 0.35 0" in="shadowBlurOuter1"/></filter><linearGradient x1="50%" y1="75.805%" x2="50%" y2="0%" id="m"><stop stop-color="#101216" offset="0%"/><stop stop-color="#15181D" offset="24.195%"/><stop stop-color="#1B1F27" offset="100%"/></linearGradient><linearGradient x1="50%" y1="100%" x2="50%" y2="0%" id="n"><stop stop-color="#181A1F" offset="0%"/><stop stop-color="#191B22" offset="62.703%"/><stop stop-color="#0C0D10" offset="100%"/></linearGradient><linearGradient x1="17.539%" y1="12.329%" x2="83.994%" y2="85.232%" id="q"><stop stop-color="#F2F4F7" offset="0%"/><stop stop-color="#DEE3EC" offset="100%"/></linearGradient><path d="M75.757 37.817C75.757 16.931 58.798 0 37.878 0 16.958 0 0 16.931 0 37.817s16.959 37.818 37.878 37.818c20.92 0 37.879-16.932 37.879-37.818z" id="p"/><filter x="-50%" y="-50%" width="200%" height="200%" filterUnits="objectBoundingBox" id="o"><feOffset dy="8" in="SourceAlpha" result="shadowOffsetOuter1"/><feGaussianBlur stdDeviation="10" in="shadowOffsetOuter1" result="shadowBlurOuter1"/><feColorMatrix values="0 0 0 0 0 0 0 0 0 0 0 0 0 0 0 0 0 0 0.35 0" in="shadowBlurOuter1"/></filter><path d="M38 57.772c9.253 0 14.732-5.348 14.732-11.79 0-5.774-3.591-8.753-8.644-10.758l-5.235-2.25c-3.592-1.397-6.819-2.552-6.819-5.59 0-2.979 2.557-4.68 6.331-4.68 4.018 0 6.819 1.276 9.497 3.403l3.653-4.498c-3.288-3.1-7.914-5.044-12.784-5.044-8.097 0-13.82 4.862-13.82 11.183 0 5.835 4.323 8.934 8.524 10.575l5.418 2.37c3.956 1.642 6.696 2.614 6.696 6.14 0 2.795-2.496 4.8-7.123 4.8-4.2 0-8.157-1.823-11.14-4.497l-4.14 4.802C27.103 55.645 32.4 57.772 38 57.772z" id="s"/><filter x="-50%" y="-50%" width="200%" height="200%" filterUnits="objectBoundingBox" id="r"><feOffset dy="2" in="SourceAlpha" result="shadowOffsetOuter1"/><feGaussianBlur stdDeviation="1" in="shadowOffsetOuter1" result="shadowBlurOuter1"/><feColorMatrix values="0 0 0 0 1 0 0 0 0 1 0 0 0 0 1 0 0 0 1 0" in="shadowBlurOuter1"/></filter><filter x="-50%" y="-50%" width="200%" height="200%" filterUnits="objectBoundingBox" id="t"><feGaussianBlur stdDeviation="6" in="SourceAlpha" result="shadowBlurInner1"/><feOffset dy="6" in="shadowBlurInner1" result="shadowOffsetInner1"/><feComposite in="shadowOffsetInner1" in2="SourceAlpha" operator="arithmetic" k2="-1" k3="1" result="shadowInnerInner1"/><feColorMatrix values="0 0 0 0 0 0 0 0 0 0 0 0 0 0 0 0 0 0 0.8 0" in="shadowInnerInner1"/></filter></defs><g fill="none" fill-rule="evenodd"><g transform="translate(20 16)"><use fill="#000" filter="url(#a)" xlink:href="#b"/><use fill="url(#c)" xlink:href="#b"/><mask id="g" fill="#fff"><use xlink:href="#d"/></mask><use fill="url(#e)" xlink:href="#d"/><use fill="#000" filter="url(#f)" xlink:href="#d"/><g mask="url(#g)"><g fill="#5C6370"><path d="M27.5 101.429h7.143v7.143H27.5zM27.5 91.429h7.143v7.143H27.5zM27.5 81.429h7.143v7.143H27.5zM27.5 71.429h7.143v7.143H27.5zM27.5 61.429h7.143v7.143H27.5zM27.5 51.429h7.143v7.143H27.5zM27.5 41.429h7.143v7.143H27.5zM27.5 31.429h7.143v7.143H27.5zM27.5 111.429h7.143v7.143H27.5zM23.929 121.429h10.714v7.143H23.929z"/></g><g opacity=".9"><path fill="#61AFEF" d="M40.357 31.429h17.857v7.143H40.357z"/><path fill="#98C379" d="M61.071 31.429h10.714v7.143H61.071z"/><path fill="#E5C07B" d="M59.286 61.429h17.857v7.143H59.286zM115.357 71.429h17.857v7.143h-17.857z"/><path fill="#61AFEF" d="M61.071 71.429h24.286v7.143H61.071z"/><path fill="#ABB2BF" d="M88.214 71.429H112.5v7.143H88.214z"/><path fill="#5C6370" d="M40.357 51.429h39.286v7.143H40.357z"/><path fill="#ABB2BF" d="M40.357 41.429h14.286v7.143H40.357zM57.5 41.429h7.143v7.143H57.5z"/><path fill="#98C379" d="M67.5 41.429h14.286v7.143H67.5z"/><path fill="#C678DD" d="M40.357 61.429h16.071v7.143h-16.07zM47.5 71.429h10.714v7.143H47.5z"/><path fill="#ABB2BF" d="M59.286 101.429h14.286v7.143H59.286zM68.214 81.786h12.5v7.143h-12.5zM52.143 111.429h7.143v7.143h-7.143z"/><path fill="#D19A66" d="M83.571 81.786h17.857v7.143H83.571zM73.571 91.429h10.714v7.143H73.571z"/><path fill="#ABB2BF" d="M87.143 91.429h25v7.143h-25z"/><path fill="#98C379" d="M115 91.429h10.714v7.143H115z"/><path fill="#E06C75" d="M56.428 91.429h14.286v7.143H56.428z"/><path fill="#C678DD" d="M47.5 101.429h8.93v7.143H47.5zM40.357 111.429h8.93v7.143h-8.93z"/></g></g><g mask="url(#g)"><use fill="#000" filter="url(#h)" xlink:href="#i"/><use fill="#D7DCE5" xlink:href="#i"/><use fill="#000" filter="url(#j)" xlink:href="#i"/></g></g><g transform="rotate(-9 367.611 -1895.763)"><use fill="#000" filter="url(#k)" xlink:href="#l"/><use fill="#282C34" xlink:href="#l"/></g><path fill="url(#m)" d="M0 114.972h115.326v13.506H0z" transform="rotate(-9 453.418 -1902.516)"/><path fill="#373C47" d="M413.767 29.995l3.34-.529 17.986 113.557-3.34.529z"/><path fill-opacity=".15" fill="#C0D4FC" d="M393.725 33.17l23.383-3.704 4.754 30.015-23.383 3.703z"/><g opacity=".9"><path fill="#61AFEF" d="M393.785 33.16l2.687-.426.136.86-2.687.425z"/><path fill="#98C379" d="M396.902 32.666l1.611-.255.137.86-1.612.255z"/><path fill="#E5C07B" d="M397.028 36.94l2.686-.426.136.86-2.686.425zM403.749 37.305l2.686-.425.136.86-2.686.425z"/><path fill="#61AFEF" d="M397.517 38.292l3.654-.578.136.859-3.654.579z"/><path fill="#ABB2BF" d="M401.6 37.646l1.72-.273.136.86-1.72.272z"/><path fill="#5C6370" d="M394.227 35.951l5.91-.936.136.86-5.91.935z"/><path fill="#ABB2BF" d="M394.006 34.556l2.15-.34.136.858-2.15.34zM396.585 34.147l1.075-.17.136.86-1.075.17z"/><path fill="#98C379" d="M398.09 33.909l2.149-.34.136.859-2.15.34z"/><path fill="#C678DD" d="M394.449 37.348l2.149-.34.136.859-2.15.34zM395.744 38.573l1.344-.213.136.86-1.344.212z"/><path fill="#ABB2BF" d="M398.18 42.48l2.15-.341.136.86-2.15.34zM399.887 39.348l1.075-.17.136.859-1.074.17zM397.327 44.046l1.075-.17.136.86-1.075.17z"/><path fill="#C38875" d="M401.392 39.11l2.686-.426.136.86-2.686.425zM400.108 40.743l.86-.136.136.86-.86.135z"/><path fill="#98C379" d="M402.686 40.335l.86-.136.136.86-.86.135z"/><path fill="#C3727A" d="M397.53 41.152l2.149-.34.136.859-2.15.34z"/><path fill="#ABB2BF" d="M401.397 40.539l.86-.136.136.86-.86.135z"/><path fill="#C678DD" d="M396.407 42.76l1.344-.213.136.86-1.343.212zM395.554 44.327l1.343-.213.136.86-1.343.212z"/></g><path fill="#373C48" d="M325.161 164.537l20.042-3.175.845 5.336-20.042 3.174zM412.344 150.728l20.043-3.174.845 5.335-20.042 3.175zM382.281 155.49l26.723-4.233.845 5.336-26.723 4.232z"/><g><path fill="url(#n)" d="M0 0h115.326v13.506H0z" transform="rotate(-9 367.611 -1895.763)"/><path fill="#282C34" d="M301.089 34.167l41.42-6.56 2.113 13.34-41.42 6.56z"/><path fill="#98A5B4" d="M305.23 37.614l20.042-3.175.845 5.336-20.042 3.174zM346.65 31.053l20.043-3.174.845 5.335-20.043 3.175z"/></g><g><g fill="#5C6370"><path d="M308.406 50.101l5.345-.846.845 5.335-5.345.847zM309.78 58.772l5.344-.846.845 5.335-5.344.847zM311.153 67.443l5.344-.846.845 5.335-5.344.847zM312.526 76.114l5.345-.846.845 5.335-5.345.847zM313.9 84.785l5.344-.846.845 5.335-5.344.846zM315.273 93.456l5.344-.847.845 5.336-5.344.846zM316.646 102.127l5.345-.847.845 5.336-5.345.846zM318.02 110.798l5.344-.847.845 5.336-5.344.846zM319.393 119.469l5.344-.847.845 5.336-5.344.846zM319.43 128.351l6.68-1.058.846 5.336-6.68 1.058z"/></g><g opacity=".9"><path fill="#61AFEF" d="M319.095 48.408l16.702-2.645.845 5.336-16.702 2.645z"/><path fill="#98C379" d="M338.47 45.34l10.02-1.587.846 5.335-10.021 1.587z"/><path fill="#E5C07B" d="M339.25 71.882l16.701-2.646.845 5.336-16.702 2.645zM381.041 74.15l16.702-2.644.845 5.335-16.702 2.645z"/><path fill="#61AFEF" d="M342.293 80.288l22.715-3.598.845 5.336-22.715 3.597z"/><path fill="#ABB2BF" d="M367.68 76.267l10.688-1.693.845 5.336-10.688 1.693z"/><path fill="#5C6370" d="M321.842 65.75l36.744-5.82.845 5.336-36.744 5.82z"/><path fill="#ABB2BF" d="M320.469 57.08l13.361-2.117.845 5.336-13.361 2.116zM336.503 54.54l6.68-1.058.846 5.335-6.681 1.058z"/><path fill="#98C379" d="M345.855 53.058l13.362-2.116.845 5.336-13.362 2.116z"/><path fill="#C678DD" d="M323.215 74.421l13.362-2.116.845 5.335-13.362 2.117zM331.27 82.034l8.35-1.323.845 5.336-8.35 1.322z"/><path fill="#ABB2BF" d="M346.413 106.3l13.361-2.116.845 5.336-13.361 2.116zM357.028 86.843l6.68-1.059.846 5.336-6.681 1.058zM341.106 116.03l6.68-1.058.845 5.335-6.68 1.058z"/><path fill="#D19A66" d="M366.38 85.361l16.702-2.645.845 5.336-16.702 2.645zM358.401 95.514l5.344-.847.846 5.336-5.345.846z"/><path fill="#98C379" d="M374.434 92.974l5.345-.846.845 5.335-5.345.847z"/><path fill="#E06C75" d="M342.367 98.053l13.361-2.116.845 5.335-13.361 2.117z"/><path fill="#ABB2BF" d="M366.417 94.244l5.345-.847.845 5.336-5.345.846z"/><path fill="#C678DD" d="M335.39 108.047l8.35-1.323.845 5.335-8.35 1.323zM330.082 117.776l8.35-1.323.846 5.336-8.35 1.322z"/></g></g><g><g transform="rotate(-9 800.719 -2293.994)"><use fill="#000" filter="url(#o)" xlink:href="#p"/><use fill="url(#q)" xlink:href="#p"/></g><g transform="rotate(-9 800.719 -2293.994)"><use fill="#000" filter="url(#r)" xlink:href="#s"/><use fill="#485266" xlink:href="#s"/><use fill="#000" filter="url(#t)" xlink:href="#s"/></g></g></g></svg>