<?xml version="1.0" encoding="utf-8"?>
<!-- Generator: Adobe Illustrator 17.0.0, SVG Export Plug-In . SVG Version: 6.00 Build 0)  -->
<!DOCTYPE svg PUBLIC "-//W3C//DTD SVG 1.1//EN" "http://www.w3.org/Graphics/SVG/1.1/DTD/svg11.dtd">
<svg version="1.1" id="Livello_1" xmlns="http://www.w3.org/2000/svg" xmlns:xlink="http://www.w3.org/1999/xlink" x="0px" y="0px"
	 width="512px" height="512px" viewBox="0 0 512 512" enable-background="new 0 0 512 512" xml:space="preserve">
<g>
	<path fill-rule="evenodd" clip-rule="evenodd" fill="#FFFFFF" d="M256,11.619c-138.366,0-250.568,112.178-250.568,250.568
		c0,110.707,71.795,204.629,171.354,237.763c12.521,2.318,17.12-5.438,17.12-12.055c0-5.973-0.231-25.714-0.34-46.651
		c-69.708,15.159-84.417-29.564-84.417-29.564c-11.398-28.96-27.821-36.663-27.821-36.663c-22.736-15.552,1.714-15.232,1.714-15.232
		c25.159,1.767,38.41,25.824,38.41,25.824c22.347,38.304,58.617,27.23,72.917,20.828c2.249-16.192,8.741-27.25,15.908-33.507
		c-55.655-6.334-114.163-27.822-114.163-123.831c0-27.355,9.79-49.708,25.82-67.256c-2.602-6.313-11.179-31.797,2.427-66.312
		c0,0,21.042-6.731,68.921,25.688c19.989-5.553,41.424-8.337,62.718-8.434c21.294,0.098,42.745,2.881,62.771,8.434
		c47.826-32.419,68.836-25.688,68.836-25.688c13.639,34.516,5.061,59.999,2.46,66.312c16.067,17.547,25.787,39.901,25.787,67.256
		c0,96.241-58.617,117.429-114.414,123.633c8.987,7.776,16.994,23.024,16.994,46.401c0,33.526-0.288,60.509-0.288,68.763
		c0,6.67,4.51,14.482,17.209,12.023c99.507-33.17,171.212-127.061,171.212-237.731C506.568,123.797,394.382,11.619,256,11.619z"/>
	<path fill="#FFFFFF" d="M100.336,371.378c-0.551,1.248-2.512,1.621-4.295,0.766c-1.819-0.818-2.836-2.516-2.249-3.764
		c0.539-1.28,2.5-1.637,4.315-0.782C99.927,368.416,100.964,370.13,100.336,371.378L100.336,371.378z M97.252,369.092"/>
	<path fill="#FFFFFF" d="M110.486,382.699c-1.195,1.106-3.534,0.592-5.118-1.159c-1.641-1.746-1.945-4.085-0.734-5.207
		c1.232-1.106,3.497-0.588,5.138,1.159C111.414,379.259,111.735,381.577,110.486,382.699L110.486,382.699z M108.096,380.134"/>
	<path fill="#FFFFFF" d="M120.366,397.129c-1.536,1.07-4.048,0.069-5.6-2.16c-1.536-2.229-1.536-4.903,0.036-5.973
		c1.552-1.07,4.028-0.105,5.6,2.103C121.934,393.364,121.934,396.039,120.366,397.129L120.366,397.129z M120.366,397.129"/>
	<path fill="#FFFFFF" d="M133.899,411.072c-1.374,1.515-4.299,1.106-6.439-0.961c-2.192-2.018-2.8-4.887-1.426-6.402
		c1.394-1.516,4.336-1.09,6.491,0.96C134.701,406.687,135.362,409.572,133.899,411.072L133.899,411.072z M133.899,411.072"/>
	<path fill="#FFFFFF" d="M152.571,419.168c-0.608,1.961-3.424,2.853-6.26,2.018c-2.836-0.859-4.688-3.157-4.117-5.138
		c0.588-1.978,3.42-2.905,6.277-2.014C151.303,414.889,153.159,417.17,152.571,419.168L152.571,419.168z M152.571,419.168"/>
	<path fill="#FFFFFF" d="M173.079,420.667c0.069,2.066-2.338,3.78-5.317,3.817c-2.995,0.069-5.421-1.605-5.454-3.639
		c0-2.087,2.354-3.78,5.348-3.833C170.635,416.955,173.079,418.617,173.079,420.667L173.079,420.667z M173.079,420.667"/>
	<path fill="#FFFFFF" d="M192.16,417.421c0.356,2.014-1.714,4.085-4.672,4.636c-2.909,0.535-5.6-0.713-5.973-2.711
		c-0.361-2.066,1.746-4.137,4.652-4.672C189.129,414.159,191.783,415.371,192.16,417.421L192.16,417.421z M192.16,417.421"/>
</g>
</svg>
