<?xml version="1.0" encoding="UTF-8" standalone="no"?>
<svg width="292px" height="60px" viewBox="0 0 292 60" version="1.1" xmlns="http://www.w3.org/2000/svg" xmlns:xlink="http://www.w3.org/1999/xlink">
    <!-- Generator: Sketch 39 (31667) - http://www.bohemiancoding.com/sketch -->
    <title>Slice 1</title>
    <desc>Created with Sketch.</desc>
    <defs></defs>
    <g id="Page-1" stroke="none" stroke-width="1" fill="none" fill-rule="evenodd">
        <g id="Group-2" fill="#9DA5B4">
            <g id="Group">
                <g id="icns_file_type_default" transform="translate(240.000000, 0.000000)">
                    <g id="file_icons">
                        <path d="M25.6292662,17.1428571 L8.54308872,17.1428571 L8.54308872,12.8571429 L25.6292662,12.8571429 L25.6292662,17.1428571 L25.6292662,17.1428571 Z M8.54308872,30 L38.4438993,30 L38.4438993,25.7142857 L8.54308872,25.7142857 L8.54308872,30 L8.54308872,30 Z M8.54308872,38.5714286 L38.4438993,38.5714286 L38.4438993,34.2857143 L8.54308872,34.2857143 L8.54308872,38.5714286 L8.54308872,38.5714286 Z M8.54308872,47.1428571 L38.4438993,47.1428571 L38.4438993,42.8571429 L8.54308872,42.8571429 L8.54308872,47.1428571 L8.54308872,47.1428571 Z M51.2585323,15 L51.2585323,55.7142857 C51.2585323,58.0714286 49.3363374,60 46.986988,60 L4.27154436,60 C1.92219496,60 0,58.0714286 0,55.7142857 L0,4.28571429 C0,1.92857143 1.92219496,0 4.27154436,0 L36.3081271,0 L51.2585323,15 L51.2585323,15 Z M46.986988,17.1428571 L34.1723549,4.28571429 L4.27154436,4.28571429 L4.27154436,55.7142857 L46.986988,55.7142857 L46.986988,17.1428571 L46.986988,17.1428571 Z" id="file_x5F_type_x5F_default_1_"></path>
                    </g>
                </g>
                <g id="icns_file_type_image" transform="translate(160.000000, 0.000000)">
                    <g id="file_icons">
                        <g id="file_x5F_type_x5F_image">
                            <path d="M26.9665497,17.1424912 L35.9553995,17.1424912 L35.9553995,25.7137368 L26.9665497,25.7137368 L26.9665497,17.1424912 L26.9665497,17.1424912 L26.9665497,17.1424912 Z M53.9330993,14.9996798 L53.9330993,55.7130965 C53.9330993,58.070189 51.9106081,59.9987193 49.4386744,59.9987193 L4.49442494,59.9987193 C2.02249122,59.9987193 0,58.070189 0,55.7130965 L0,4.2856228 C0,1.92853026 2.02249122,0 4.49442494,0 L38.202612,0 L53.9330993,14.9996798 L53.9330993,14.9996798 L53.9330993,14.9996798 Z M49.4386744,17.1424912 L35.9553995,4.2856228 L4.49442494,4.2856228 L4.49442494,51.4274737 L17.9776998,29.9993596 L26.9665497,47.1418508 L35.9553995,38.5706052 L49.4386744,51.4274737 L49.4386744,17.1424912 L49.4386744,17.1424912 L49.4386744,17.1424912 Z" id="Shape"></path>
                        </g>
                    </g>
                </g>
                <g id="icns_file_type_script" transform="translate(80.000000, 0.000000)">
                    <g id="file_icons">
                        <g id="file_x5F_type_x5F_script">
                            <path d="M38.202612,0 L4.49442494,0 C2.02249122,0 0,1.92853026 0,4.2856228 L0,55.7130965 C0,58.070189 2.02249122,59.9987193 4.49442494,59.9987193 L49.4386744,59.9987193 C51.9106081,59.9987193 53.9330993,58.070189 53.9330993,55.7130965 L53.9330993,14.9996798 L38.202612,0 L38.202612,0 L38.202612,0 Z M49.4386744,55.7130965 L4.49442494,55.7130965 L4.49442494,4.2856228 L35.9553995,4.2856228 L49.4386744,17.1424912 L49.4386744,55.7130965 L49.4386744,55.7130965 L49.4386744,55.7130965 Z M11.9866313,17.1424912 L26.9665497,29.9993596 L11.9866313,42.856228 L8.98884989,37.8163356 L17.9776998,29.9993596 L8.98884989,22.2852386 L11.9866313,17.1424912 L11.9866313,17.1424912 L11.9866313,17.1424912 Z M44.9442494,38.5706052 L26.9665497,38.5706052 L26.9665497,42.856228 L44.9442494,42.856228 L44.9442494,38.5706052 L44.9442494,38.5706052 Z" id="Shape_4_"></path>
                        </g>
                    </g>
                </g>
                <g id="icns_file_type_source">
                    <g id="file_icons">
                        <g id="file_x5F_type_x5F_source">
                            <path d="M38.202612,0 L4.49442494,0 C2.02249122,0 0,1.92857143 0,4.28571429 L0,55.7142857 C0,58.0714286 2.02249122,60 4.49442494,60 L49.4386744,60 C51.9106081,60 53.9330993,58.0714286 53.9330993,55.7142857 L53.9330993,15 L38.202612,0 L38.202612,0 L38.202612,0 Z M49.4386744,55.7142857 L4.49442494,55.7142857 L4.49442494,4.28571429 L35.9553995,4.28571429 L49.4386744,17.1428571 L49.4386744,55.7142857 L49.4386744,55.7142857 L49.4386744,55.7142857 Z M22.4721247,25.6285714 L15.7304873,32.1428571 L22.4721247,38.5714286 L20.2249122,42.8571429 L8.98884989,32.1428571 L20.2249122,21.4285714 L22.4721247,25.6285714 L22.4721247,25.6285714 L22.4721247,25.6285714 Z M33.7081871,21.4285714 L44.9442494,32.1428571 L33.7081871,42.8571429 L31.4609746,38.6571429 L38.202612,32.1428571 L31.4609746,25.7142857 L33.7081871,21.4285714 L33.7081871,21.4285714 L33.7081871,21.4285714 Z" id="Shape_1_"></path>
                        </g>
                    </g>
                </g>
            </g>
        </g>
    </g>
</svg>