<?xml version="1.0" encoding="utf-8"?>
<!-- Generator: Adobe Illustrator 17.0.0, SVG Export Plug-In . SVG Version: 6.00 Build 0)  -->
<!DOCTYPE svg PUBLIC "-//W3C//DTD SVG 1.1//EN" "http://www.w3.org/Graphics/SVG/1.1/DTD/svg11.dtd">
<svg version="1.1" id="Livello_1" xmlns="http://www.w3.org/2000/svg" xmlns:xlink="http://www.w3.org/1999/xlink" x="0px" y="0px"
	 width="1092px" height="630px" viewBox="0 0 1092 630" enable-background="new 0 0 1092 630" xml:space="preserve">
<g id="body">
	
		<linearGradient id="SVGID_1_" gradientUnits="userSpaceOnUse" x1="596.4999" y1="-139.0018" x2="596.5001" y2="-104.998" gradientTransform="matrix(1 0 0 -1 -50 491)">
		<stop  offset="0" style="stop-color:#7C8891"/>
		<stop  offset="1" style="stop-color:#9DA5B4"/>
	</linearGradient>
	<path fill="url(#SVGID_1_)" d="M1054.5,596h-508h-75h-433h-38v20c4,4,9.079,5.813,14,8c9,4,24,6,24,6h508h508c0,0,15-2,24-6
		c4.921-2.187,10-4,14-8v-20H1054.5z M623.946,601.797c0,4.573-6.336,6.203-12.265,6.203H483.063
		c-2.947,0-12.563-0.447-12.563-6.203v-5.604h2v5.604c0,2.903,5.305,4.203,10.563,4.203h128.619c5.109,0,10.265-1.3,10.265-4.203
		v-5.604h2v5.604H623.946z"/>
</g>
<path fill="#181A1F" d="M962.158,1H133.5c-15.991,0-29,13.009-29,29v547c0,6.525,2.221,12.898,6.264,18H471.5h75h438.394
	c4.043-5.102,6.264-11.475,6.264-18V30C991.158,14.009,978.149,1,962.158,1z M548.5,16c2.761,0,5,2.239,5,5s-2.239,5-5,5
	s-5-2.239-5-5S545.739,16,548.5,16z M963.5,558h-833V37h833V558z"/>
<rect x="130.5" y="37" fill="#020202" width="833" height="521"/>
</svg>
