<?xml version="1.0" encoding="utf-8"?>
<!-- Generator: Adobe Illustrator 17.0.0, SVG Export Plug-In . SVG Version: 6.00 Build 0)  -->
<!DOCTYPE svg PUBLIC "-//W3C//DTD SVG 1.1//EN" "http://www.w3.org/Graphics/SVG/1.1/DTD/svg11.dtd">
<svg version="1.1" id="Livello_1" xmlns="http://www.w3.org/2000/svg" xmlns:xlink="http://www.w3.org/1999/xlink" x="0px" y="0px"
	 width="1261.846px" height="822.906px" viewBox="-875.424 1473.047 1261.846 822.906"
	 enable-background="new -875.424 1473.047 1261.846 822.906" xml:space="preserve">
<g>
	<path fill="#ACB5C0" d="M-857.703,1490.422c0.708-1.5,1.609-2.609,2.703-3.328s2.411-1.078,3.953-1.078
		c2.812,0,4.797,1.089,5.953,3.266s1.734,6.276,1.734,12.297v20.281h-5.25v-20.032c0-4.938-0.276-8.005-0.828-9.203
		s-1.558-1.797-3.016-1.797c-1.667,0-2.808,0.641-3.422,1.922c-0.615,1.281-0.922,4.308-0.922,9.078v20.032h-5.25v-20.032
		c0-5-0.297-8.083-0.891-9.25s-1.662-1.75-3.203-1.75c-1.521,0-2.578,0.641-3.172,1.922s-0.891,4.308-0.891,9.078v20.032h-5.219v-35
		h5.219v3c0.688-1.25,1.547-2.203,2.578-2.859s2.203-0.984,3.516-0.984c1.583,0,2.901,0.365,3.953,1.094
		C-859.105,1487.839-858.287,1488.943-857.703,1490.422z"/>
	<path fill="#ACB5C0" d="M-821.047,1486.016c4.854,0,8.567,1.573,11.141,4.719c2.573,3.146,3.859,7.698,3.859,13.656
		c0,5.979-1.281,10.537-3.844,13.672c-2.562,3.136-6.281,4.703-11.156,4.703c-4.854,0-8.562-1.567-11.125-4.703
		c-2.562-3.135-3.844-7.692-3.844-13.672c0-5.958,1.281-10.51,3.844-13.656C-829.61,1487.589-825.902,1486.016-821.047,1486.016z
		 M-821.047,1490.891c-2.917,0-5.125,1.136-6.625,3.406c-1.5,2.271-2.25,5.636-2.25,10.094c0,4.438,0.75,7.797,2.25,10.078
		s3.708,3.422,6.625,3.422c2.938,0,5.156-1.141,6.656-3.422s2.25-5.641,2.25-10.078c0-4.458-0.75-7.823-2.25-10.094
		C-815.891,1492.027-818.11,1490.891-821.047,1490.891z"/>
	<path fill="#ACB5C0" d="M-774.953,1491.328v-18.093h5.75v48.625h-5.75v-4.406c-0.958,1.729-2.234,3.047-3.828,3.953
		c-1.594,0.906-3.433,1.359-5.516,1.359c-4.229,0-7.558-1.641-9.984-4.922c-2.427-3.281-3.641-7.807-3.641-13.578
		c0-5.688,1.219-10.151,3.656-13.391c2.438-3.239,5.76-4.859,9.969-4.859c2.104,0,3.958,0.453,5.562,1.359
		S-775.87,1489.599-774.953,1491.328z M-791.86,1504.391c0,4.458,0.708,7.823,2.125,10.094c1.417,2.271,3.51,3.406,6.281,3.406
		s4.88-1.146,6.328-3.438s2.172-5.646,2.172-10.062c0-4.438-0.724-7.797-2.172-10.078s-3.558-3.422-6.328-3.422
		c-2.771,0-4.865,1.136-6.281,3.406C-791.152,1496.568-791.86,1499.933-791.86,1504.391z"/>
	<path fill="#ACB5C0" d="M-757.141,1508.61v-21.688h5.75v21.688c0,3.146,0.557,5.458,1.672,6.938
		c1.114,1.479,2.838,2.219,5.172,2.219c2.708,0,4.781-0.953,6.219-2.859s2.156-4.641,2.156-8.203v-19.783h5.781v34.938h-5.781v-5.25
		c-1.021,2.021-2.412,3.552-4.172,4.594c-1.761,1.042-3.818,1.562-6.172,1.562c-3.583,0-6.25-1.172-8-3.516
		S-757.141,1513.36-757.141,1508.61z"/>
	<path fill="#ACB5C0" d="M-702.235,1509.203c0,2.583,0.474,4.531,1.422,5.844c0.948,1.312,2.349,1.969,4.203,1.969h6.719v4.844
		h-7.281c-3.438,0-6.099-1.099-7.984-3.297c-1.886-2.198-2.828-5.317-2.828-9.359v-31.657h-9.219v-4.5h14.969v36.156H-702.235z"/>
	<path fill="#ACB5C0" d="M-651.172,1501.485v2.812h-24.906v0.188c-0.167,4.771,0.745,8.198,2.734,10.281s4.797,3.125,8.422,3.125
		c1.833,0,3.75-0.292,5.75-0.875s4.135-1.469,6.406-2.656v5.719c-2.188,0.896-4.297,1.568-6.328,2.016s-3.995,0.672-5.891,0.672
		c-5.438,0-9.688-1.63-12.75-4.891c-3.062-3.26-4.594-7.755-4.594-13.484c0-5.583,1.5-10.042,4.5-13.375s7-5,12-5
		c4.458,0,7.974,1.511,10.547,4.531C-652.709,1493.568-651.339,1497.214-651.172,1501.485z M-656.922,1499.797
		c-0.25-2.417-1.13-4.505-2.641-6.266c-1.511-1.76-3.683-2.641-6.516-2.641c-2.771,0-5.052,0.917-6.844,2.75
		s-2.771,3.896-2.938,6.188L-656.922,1499.797z"/>
	<path fill="#ACB5C0" d="M-635.485,1509.235h11v12.625h-11V1509.235z"/>
	<path fill="#ACB5C0" d="M-574.11,1501.485v2.812h-24.906v0.188c-0.167,4.771,0.745,8.198,2.734,10.281s4.797,3.125,8.422,3.125
		c1.833,0,3.75-0.292,5.75-0.875s4.135-1.469,6.406-2.656v5.719c-2.188,0.896-4.297,1.568-6.328,2.016s-3.995,0.672-5.891,0.672
		c-5.438,0-9.688-1.63-12.75-4.891c-3.062-3.26-4.594-7.755-4.594-13.484c0-5.583,1.5-10.042,4.5-13.375s7-5,12-5
		c4.458,0,7.974,1.511,10.547,4.531C-575.646,1493.568-574.277,1497.214-574.11,1501.485z M-579.86,1499.797
		c-0.25-2.417-1.13-4.505-2.641-6.266c-1.511-1.76-3.683-2.641-6.516-2.641c-2.771,0-5.052,0.917-6.844,2.75
		s-2.771,3.896-2.938,6.188L-579.86,1499.797z"/>
	<path fill="#ACB5C0" d="M-535.641,1486.86l-12.531,16.75l13.75,18.25h-6.656l-10.25-14.031l-10.219,14.031h-6.656l13.75-18.25
		l-12.531-16.75h6.375l9.281,12.656l9.219-12.656H-535.641z"/>
	<path fill="#ACB5C0" d="M-520.328,1517.453v17.719h-5.781v-48.312h5.781v4.469c0.958-1.729,2.234-3.047,3.828-3.953
		s3.432-1.359,5.516-1.359c4.229,0,7.547,1.636,9.953,4.906c2.406,3.271,3.609,7.802,3.609,13.594
		c0,5.688-1.208,10.151-3.625,13.391s-5.729,4.859-9.938,4.859c-2.125,0-3.984-0.453-5.578-1.359
		S-519.412,1519.183-520.328,1517.453z M-503.453,1504.391c0-4.458-0.703-7.823-2.109-10.094s-3.495-3.406-6.266-3.406
		c-2.792,0-4.906,1.141-6.344,3.422s-2.156,5.641-2.156,10.078c0,4.417,0.719,7.771,2.156,10.062
		c1.438,2.292,3.552,3.438,6.344,3.438c2.771,0,4.859-1.135,6.266-3.406C-504.156,1512.214-503.453,1508.849-503.453,1504.391z"/>
	<path fill="#ACB5C0" d="M-474.266,1486.016c4.854,0,8.567,1.573,11.141,4.719c2.573,3.146,3.859,7.698,3.859,13.656
		c0,5.979-1.281,10.537-3.844,13.672c-2.562,3.136-6.281,4.703-11.156,4.703c-4.854,0-8.562-1.567-11.125-4.703
		c-2.562-3.135-3.844-7.692-3.844-13.672c0-5.958,1.281-10.51,3.844-13.656S-479.12,1486.016-474.266,1486.016z M-474.266,1490.891
		c-2.917,0-5.125,1.136-6.625,3.406c-1.5,2.271-2.25,5.636-2.25,10.094c0,4.438,0.75,7.797,2.25,10.078s3.708,3.422,6.625,3.422
		c2.938,0,5.156-1.141,6.656-3.422s2.25-5.641,2.25-10.078c0-4.458-0.75-7.823-2.25-10.094
		C-469.11,1492.027-471.328,1490.891-474.266,1490.891z"/>
	<path fill="#ACB5C0" d="M-418.891,1494.078c-1.229-0.958-2.479-1.656-3.75-2.094s-2.667-0.656-4.188-0.656
		c-3.583,0-6.323,1.125-8.219,3.375s-2.844,5.5-2.844,9.75v17.407h-5.781v-35h5.781v6.844c0.958-2.479,2.432-4.38,4.422-5.703
		c1.989-1.323,4.349-1.984,7.078-1.984c1.417,0,2.739,0.177,3.969,0.531c1.229,0.354,2.406,0.906,3.531,1.656L-418.891,1494.078
		L-418.891,1494.078z"/>
	<path fill="#ACB5C0" d="M-397.266,1476.922v9.938h13.062v4.469h-13.062v19c0,2.583,0.489,4.386,1.469,5.406
		c0.979,1.021,2.688,1.531,5.125,1.531h6.469v4.594h-7.031c-4.312,0-7.354-0.864-9.125-2.594c-1.771-1.729-2.656-4.708-2.656-8.938
		v-19h-9.344v-4.468h9.344v-9.938H-397.266z"/>
	<path fill="#ACB5C0" d="M-347.516,1488.078v5.625c-1.646-0.958-3.302-1.677-4.969-2.156s-3.365-0.719-5.094-0.719
		c-2.604,0-4.547,0.422-5.828,1.266s-1.922,2.13-1.922,3.859c0,1.562,0.479,2.729,1.438,3.5c0.958,0.771,3.344,1.521,7.156,2.25
		l2.312,0.438c2.854,0.542,5.016,1.625,6.484,3.25s2.203,3.74,2.203,6.344c0,3.458-1.229,6.162-3.688,8.109
		c-2.458,1.948-5.875,2.922-10.25,2.922c-1.729,0-3.542-0.183-5.438-0.547s-3.948-0.911-6.156-1.641v-5.938
		c2.146,1.104,4.198,1.933,6.156,2.484c1.958,0.552,3.812,0.828,5.562,0.828c2.542,0,4.51-0.516,5.906-1.547
		s2.094-2.474,2.094-4.328c0-2.667-2.552-4.51-7.656-5.531l-0.25-0.062l-2.156-0.438c-3.312-0.646-5.729-1.734-7.25-3.266
		c-1.521-1.531-2.281-3.62-2.281-6.266c0-3.354,1.135-5.942,3.406-7.766c2.271-1.823,5.51-2.734,9.719-2.734
		c1.875,0,3.677,0.172,5.406,0.516C-350.881,1486.875-349.183,1487.391-347.516,1488.078z"/>
	<path fill="#ACB5C0" d="M-298.11,1491.516h33.031v5.281h-33.031V1491.516z M-298.11,1506.235h33.031v5.281h-33.031V1506.235z"/>
	<path fill="#E06C75" d="M-201.328,1509.203c0,2.583,0.474,4.531,1.422,5.844c0.948,1.312,2.349,1.969,4.203,1.969h6.719v4.844
		h-7.281c-3.438,0-6.099-1.099-7.984-3.297c-1.886-2.198-2.828-5.317-2.828-9.359v-31.657h-9.219v-4.5h14.969L-201.328,1509.203
		L-201.328,1509.203z"/>
	<path fill="#E06C75" d="M-150.266,1501.485v2.812h-24.906v0.188c-0.167,4.771,0.745,8.198,2.734,10.281s4.797,3.125,8.422,3.125
		c1.833,0,3.75-0.292,5.75-0.875s4.135-1.469,6.406-2.656v5.719c-2.188,0.896-4.297,1.568-6.328,2.016s-3.995,0.672-5.891,0.672
		c-5.438,0-9.688-1.63-12.75-4.891c-3.062-3.26-4.594-7.755-4.594-13.484c0-5.583,1.5-10.042,4.5-13.375s7-5,12-5
		c4.458,0,7.974,1.511,10.547,4.531C-151.802,1493.568-150.433,1497.214-150.266,1501.485z M-156.016,1499.797
		c-0.25-2.417-1.13-4.505-2.641-6.266c-1.511-1.76-3.683-2.641-6.516-2.641c-2.771,0-5.052,0.917-6.844,2.75
		s-2.771,3.896-2.938,6.188L-156.016,1499.797z"/>
	<path fill="#E06C75" d="M-113.516,1473.235v4.781h-6.531c-2.062,0-3.495,0.422-4.297,1.266s-1.203,2.339-1.203,4.484v3.094h12.031
		v4.469h-12.031v30.531h-5.75v-30.532h-9.344v-4.468h9.344v-2.438c0-3.833,0.88-6.656,2.641-8.469
		c1.76-1.812,4.505-2.719,8.234-2.719L-113.516,1473.235L-113.516,1473.235z"/>
	<path fill="#E06C75" d="M-89.016,1476.922v9.938h13.062v4.469h-13.062v19c0,2.583,0.489,4.386,1.469,5.406
		c0.979,1.021,2.688,1.531,5.125,1.531h6.469v4.594h-7.031c-4.312,0-7.354-0.864-9.125-2.594c-1.771-1.729-2.656-4.708-2.656-8.938
		v-19h-9.344v-4.468h9.344v-9.938H-89.016z"/>
	<path fill="#E06C75" d="M-57.953,1517.453v17.719h-5.781v-48.312h5.781v4.469c0.958-1.729,2.234-3.047,3.828-3.953
		s3.432-1.359,5.516-1.359c4.229,0,7.547,1.636,9.953,4.906c2.406,3.271,3.609,7.802,3.609,13.594
		c0,5.688-1.208,10.151-3.625,13.391s-5.729,4.859-9.938,4.859c-2.125,0-3.984-0.453-5.578-1.359S-57.037,1519.183-57.953,1517.453z
		 M-41.078,1504.391c0-4.458-0.703-7.823-2.109-10.094s-3.495-3.406-6.266-3.406c-2.792,0-4.906,1.141-6.344,3.422
		s-2.156,5.641-2.156,10.078c0,4.417,0.719,7.771,2.156,10.062c1.438,2.292,3.552,3.438,6.344,3.438
		c2.771,0,4.859-1.135,6.266-3.406C-41.781,1512.214-41.078,1508.849-41.078,1504.391z"/>
	<path fill="#E06C75" d="M1.953,1501.891v19.969h-5.781v-5.188c-1.229,2.083-2.776,3.62-4.641,4.609s-4.13,1.484-6.797,1.484
		c-3.562,0-6.406-1.005-8.531-3.016c-2.125-2.01-3.188-4.703-3.188-8.078c0-3.896,1.307-6.854,3.922-8.875
		c2.614-2.021,6.453-3.031,11.516-3.031h7.719v-0.905c-0.021-2.792-0.729-4.817-2.125-6.078c-1.396-1.26-3.625-1.891-6.688-1.891
		c-1.958,0-3.938,0.281-5.938,0.844s-3.948,1.386-5.844,2.469v-5.75c2.125-0.812,4.161-1.422,6.109-1.828s3.838-0.609,5.672-0.609
		c2.896,0,5.37,0.427,7.422,1.281s3.713,2.136,4.984,3.844c0.792,1.042,1.354,2.328,1.688,3.859
		C1.786,1496.531,1.953,1498.828,1.953,1501.891z M-9.203,1504.266h-1.906c-3.354,0-5.88,0.589-7.578,1.766
		s-2.547,2.933-2.547,5.266c0,2.104,0.635,3.74,1.906,4.906c1.271,1.167,3.031,1.75,5.281,1.75c3.167,0,5.656-1.099,7.469-3.297
		c1.812-2.198,2.729-5.234,2.75-9.109v-1.281L-9.203,1504.266L-9.203,1504.266z"/>
	<path fill="#E06C75" d="M34.203,1491.328v-18.093h5.75v48.625h-5.75v-4.406c-0.958,1.729-2.234,3.047-3.828,3.953
		s-3.433,1.359-5.516,1.359c-4.229,0-7.558-1.641-9.984-4.922c-2.427-3.281-3.641-7.807-3.641-13.578
		c0-5.688,1.219-10.151,3.656-13.391c2.438-3.239,5.76-4.859,9.969-4.859c2.104,0,3.958,0.453,5.562,1.359
		C32.026,1488.281,33.286,1489.599,34.203,1491.328z M17.297,1504.391c0,4.458,0.708,7.823,2.125,10.094s3.51,3.406,6.281,3.406
		s4.88-1.146,6.328-3.438s2.172-5.646,2.172-10.062c0-4.438-0.724-7.797-2.172-10.078s-3.558-3.422-6.328-3.422
		c-2.771,0-4.865,1.136-6.281,3.406C18.005,1496.568,17.297,1499.933,17.297,1504.391z"/>
	<path fill="#ACB5C0" d="M59.734,1510.578h9.75v8.281l-6.156,11.938H56.64l3.094-11.938V1510.578z M59.328,1486.891h9.75v11.281
		h-9.75V1486.891z"/>
	<path fill="#C678DD" d="M-845.61,1550.034v4.781h-6.531c-2.062,0-3.495,0.422-4.297,1.266c-0.802,0.844-1.203,2.339-1.203,4.484
		v3.094h12.031v4.469h-12.031v30.531h-5.75v-30.531h-9.344v-4.469h9.344v-2.438c0-3.833,0.88-6.656,2.641-8.469
		c1.76-1.812,4.505-2.719,8.234-2.719L-845.61,1550.034L-845.61,1550.034z"/>
	<path fill="#C678DD" d="M-834.203,1585.409v-21.688h5.75v21.688c0,3.146,0.557,5.458,1.672,6.938
		c1.114,1.479,2.838,2.219,5.172,2.219c2.708,0,4.781-0.953,6.219-2.859s2.156-4.641,2.156-8.203v-19.781h5.781v34.938h-5.781v-5.25
		c-1.021,2.021-2.412,3.552-4.172,4.594c-1.761,1.042-3.818,1.562-6.172,1.562c-3.583,0-6.25-1.172-8-3.516
		C-833.328,1593.707-834.203,1590.159-834.203,1585.409z"/>
	<path fill="#C678DD" d="M-768.922,1576.972v21.688h-5.781v-21.688c0-3.146-0.552-5.458-1.656-6.938
		c-1.104-1.479-2.833-2.219-5.188-2.219c-2.688,0-4.755,0.953-6.203,2.859s-2.172,4.641-2.172,8.203v19.781h-5.75v-35h5.75v5.25
		c1.021-2,2.406-3.516,4.156-4.547s3.823-1.547,6.219-1.547c3.562,0,6.224,1.172,7.984,3.516
		C-769.802,1568.675-768.922,1572.222-768.922,1576.972z"/>
	<path fill="#C678DD" d="M-730.078,1596.878c-1.542,0.896-3.13,1.568-4.766,2.016c-1.636,0.448-3.308,0.672-5.016,0.672
		c-5.417,0-9.651-1.625-12.703-4.875s-4.578-7.75-4.578-13.5s1.526-10.25,4.578-13.5s7.286-4.875,12.703-4.875
		c1.688,0,3.333,0.219,4.938,0.656c1.604,0.438,3.219,1.115,4.844,2.031v6.031c-1.521-1.354-3.047-2.333-4.578-2.938
		c-1.531-0.604-3.266-0.906-5.203-0.906c-3.604,0-6.375,1.167-8.312,3.5c-1.938,2.333-2.906,5.667-2.906,10
		c0,4.312,0.974,7.641,2.922,9.984c1.948,2.344,4.713,3.516,8.297,3.516c2,0,3.792-0.307,5.375-0.922
		c1.583-0.614,3.052-1.567,4.406-2.859L-730.078,1596.878L-730.078,1596.878z"/>
	<path fill="#C678DD" d="M-705.516,1553.722v9.938h13.062v4.469h-13.062v19c0,2.583,0.489,4.386,1.469,5.406
		c0.979,1.021,2.688,1.531,5.125,1.531h6.469v4.594h-7.031c-4.312,0-7.354-0.864-9.125-2.594c-1.771-1.729-2.656-4.708-2.656-8.938
		v-19h-9.344v-4.469h9.344v-9.938h5.749V1553.722z"/>
	<path fill="#C678DD" d="M-676.297,1563.784h14.719v30.406h11.406v4.469h-28.562v-4.469h11.406v-25.938h-8.969V1563.784z
		 M-667.328,1550.191h5.75v7.25h-5.75V1550.191z"/>
	<path fill="#C678DD" d="M-628.391,1562.816c4.854,0,8.567,1.573,11.141,4.719c2.573,3.146,3.859,7.698,3.859,13.656
		c0,5.979-1.281,10.537-3.844,13.672c-2.562,3.136-6.281,4.703-11.156,4.703c-4.854,0-8.562-1.567-11.125-4.703
		c-2.562-3.135-3.844-7.692-3.844-13.672c0-5.958,1.281-10.51,3.844-13.656S-633.245,1562.816-628.391,1562.816z M-628.391,1567.691
		c-2.917,0-5.125,1.136-6.625,3.406c-1.5,2.271-2.25,5.636-2.25,10.094c0,4.438,0.75,7.797,2.25,10.078s3.708,3.422,6.625,3.422
		c2.938,0,5.156-1.141,6.656-3.422c1.5-2.281,2.25-5.641,2.25-10.078c0-4.458-0.75-7.823-2.25-10.094
		S-625.453,1567.691-628.391,1567.691z"/>
	<path fill="#C678DD" d="M-576.266,1576.972v21.688h-5.781v-21.688c0-3.146-0.552-5.458-1.656-6.938
		c-1.104-1.479-2.833-2.219-5.188-2.219c-2.688,0-4.755,0.953-6.203,2.859s-2.172,4.641-2.172,8.203v19.781h-5.75v-35h5.75v5.25
		c1.021-2,2.406-3.516,4.156-4.547s3.823-1.547,6.219-1.547c3.562,0,6.224,1.172,7.984,3.516
		C-577.146,1568.675-576.266,1572.222-576.266,1576.972z"/>
	<path fill="#61AFEF" d="M-509.578,1586.003c0,2.583,0.474,4.531,1.422,5.844c0.948,1.312,2.349,1.969,4.203,1.969h6.719v4.844
		h-7.281c-3.438,0-6.099-1.099-7.984-3.297c-1.886-2.198-2.828-5.317-2.828-9.359v-31.656h-9.219v-4.5h14.969L-509.578,1586.003
		L-509.578,1586.003z"/>
	<path fill="#61AFEF" d="M-458.516,1578.284v2.812h-24.906v0.188c-0.167,4.771,0.745,8.198,2.734,10.281s4.797,3.125,8.422,3.125
		c1.833,0,3.75-0.292,5.75-0.875c2-0.583,4.135-1.469,6.406-2.656v5.719c-2.188,0.896-4.297,1.568-6.328,2.016
		c-2.031,0.448-3.995,0.672-5.891,0.672c-5.438,0-9.688-1.63-12.75-4.891c-3.062-3.26-4.594-7.755-4.594-13.484
		c0-5.583,1.5-10.042,4.5-13.375c3-3.333,7-5,12-5c4.458,0,7.974,1.511,10.547,4.531
		C-460.052,1570.368-458.683,1574.014-458.516,1578.284z M-464.266,1576.597c-0.25-2.417-1.13-4.505-2.641-6.266
		c-1.511-1.76-3.683-2.641-6.516-2.641c-2.771,0-5.052,0.917-6.844,2.75s-2.771,3.896-2.938,6.188L-464.266,1576.597z"/>
	<path fill="#61AFEF" d="M-421.766,1550.034v4.781h-6.531c-2.062,0-3.495,0.422-4.297,1.266c-0.802,0.844-1.203,2.339-1.203,4.484
		v3.094h12.031v4.469h-12.031v30.531h-5.75v-30.531h-9.344v-4.469h9.344v-2.438c0-3.833,0.88-6.656,2.641-8.469
		c1.76-1.812,4.505-2.719,8.234-2.719L-421.766,1550.034L-421.766,1550.034z"/>
	<path fill="#61AFEF" d="M-397.266,1553.722v9.938h13.062v4.469h-13.062v19c0,2.583,0.489,4.386,1.469,5.406
		c0.979,1.021,2.688,1.531,5.125,1.531h6.469v4.594h-7.031c-4.312,0-7.354-0.864-9.125-2.594c-1.771-1.729-2.656-4.708-2.656-8.938
		v-19h-9.344v-4.469h9.344v-9.938h5.749V1553.722z"/>
	<path fill="#61AFEF" d="M-366.203,1594.253v17.719h-5.781v-48.312h5.781v4.469c0.958-1.729,2.234-3.047,3.828-3.953
		s3.432-1.359,5.516-1.359c4.229,0,7.547,1.636,9.953,4.906c2.406,3.271,3.609,7.802,3.609,13.594
		c0,5.688-1.208,10.151-3.625,13.391s-5.729,4.859-9.938,4.859c-2.125,0-3.984-0.453-5.578-1.359
		S-365.287,1595.983-366.203,1594.253z M-349.328,1581.191c0-4.458-0.703-7.823-2.109-10.094s-3.495-3.406-6.266-3.406
		c-2.792,0-4.906,1.141-6.344,3.422c-1.438,2.281-2.156,5.641-2.156,10.078c0,4.417,0.719,7.771,2.156,10.062
		c1.438,2.292,3.552,3.438,6.344,3.438c2.771,0,4.859-1.135,6.266-3.406C-350.031,1589.014-349.328,1585.649-349.328,1581.191z"/>
	<path fill="#61AFEF" d="M-306.297,1578.691v19.969h-5.781v-5.188c-1.229,2.083-2.776,3.62-4.641,4.609s-4.13,1.484-6.797,1.484
		c-3.562,0-6.406-1.005-8.531-3.016c-2.125-2.01-3.188-4.703-3.188-8.078c0-3.896,1.307-6.854,3.922-8.875
		c2.614-2.021,6.453-3.031,11.516-3.031h7.719v-0.906c-0.021-2.792-0.729-4.817-2.125-6.078c-1.396-1.26-3.625-1.891-6.688-1.891
		c-1.958,0-3.938,0.281-5.938,0.844s-3.948,1.386-5.844,2.469v-5.75c2.125-0.812,4.161-1.422,6.109-1.828s3.838-0.609,5.672-0.609
		c2.896,0,5.37,0.427,7.422,1.281s3.713,2.136,4.984,3.844c0.792,1.042,1.354,2.328,1.688,3.859S-306.297,1575.628-306.297,1578.691
		z M-317.453,1581.066h-1.906c-3.354,0-5.88,0.589-7.578,1.766s-2.547,2.933-2.547,5.266c0,2.104,0.635,3.74,1.906,4.906
		c1.271,1.167,3.031,1.75,5.281,1.75c3.167,0,5.656-1.099,7.469-3.297c1.812-2.198,2.729-5.234,2.75-9.109v-1.281L-317.453,1581.066
		L-317.453,1581.066z"/>
	<path fill="#61AFEF" d="M-274.047,1568.128v-18.094h5.75v48.625h-5.75v-4.406c-0.958,1.729-2.234,3.047-3.828,3.953
		s-3.433,1.359-5.516,1.359c-4.229,0-7.558-1.641-9.984-4.922c-2.427-3.281-3.641-7.807-3.641-13.578
		c0-5.688,1.219-10.151,3.656-13.391c2.438-3.239,5.76-4.859,9.969-4.859c2.104,0,3.958,0.453,5.562,1.359
		C-276.224,1565.081-274.964,1566.399-274.047,1568.128z M-290.953,1581.191c0,4.458,0.708,7.823,2.125,10.094
		s3.51,3.406,6.281,3.406s4.88-1.146,6.328-3.438c1.448-2.292,2.172-5.646,2.172-10.062c0-4.438-0.724-7.797-2.172-10.078
		s-3.558-3.422-6.328-3.422c-2.771,0-4.865,1.136-6.281,3.406C-290.245,1573.368-290.953,1576.733-290.953,1581.191z"/>
	<path fill="#ACB5C0" d="M-197.078,1546.972c-2.771,4.75-4.839,9.484-6.203,14.203c-1.365,4.719-2.047,9.474-2.047,14.266
		c0,4.771,0.682,9.521,2.047,14.25c1.364,4.729,3.432,9.489,6.203,14.281h-5c-3.146-4.958-5.49-9.786-7.031-14.484
		c-1.542-4.698-2.312-9.38-2.312-14.047c0-4.646,0.771-9.323,2.312-14.031c1.542-4.708,3.885-9.521,7.031-14.438H-197.078
		L-197.078,1546.972z"/>
	<path fill="#ACB5C0" d="M-154.86,1564.878v5.625c-1.646-0.958-3.302-1.677-4.969-2.156s-3.365-0.719-5.094-0.719
		c-2.604,0-4.547,0.422-5.828,1.266s-1.922,2.13-1.922,3.859c0,1.562,0.479,2.729,1.438,3.5c0.958,0.771,3.344,1.521,7.156,2.25
		l2.312,0.438c2.854,0.542,5.016,1.625,6.484,3.25s2.203,3.74,2.203,6.344c0,3.458-1.229,6.162-3.688,8.109
		c-2.458,1.948-5.875,2.922-10.25,2.922c-1.729,0-3.542-0.183-5.438-0.547c-1.896-0.364-3.948-0.911-6.156-1.641v-5.938
		c2.146,1.104,4.198,1.933,6.156,2.484c1.958,0.552,3.812,0.828,5.562,0.828c2.542,0,4.51-0.516,5.906-1.547
		s2.094-2.474,2.094-4.328c0-2.667-2.552-4.51-7.656-5.531l-0.25-0.062l-2.156-0.438c-3.312-0.646-5.729-1.734-7.25-3.266
		c-1.521-1.531-2.281-3.62-2.281-6.266c0-3.354,1.135-5.942,3.406-7.766c2.271-1.823,5.51-2.734,9.719-2.734
		c1.875,0,3.677,0.172,5.406,0.516C-158.224,1563.675-156.527,1564.191-154.86,1564.878z"/>
	<path fill="#ACB5C0" d="M-127.547,1553.722v9.938h13.062v4.469h-13.062v19c0,2.583,0.489,4.386,1.469,5.406
		c0.979,1.021,2.688,1.531,5.125,1.531h6.469v4.594h-7.031c-4.312,0-7.354-0.864-9.125-2.594c-1.771-1.729-2.656-4.708-2.656-8.938
		v-19h-9.344v-4.469h9.344v-9.938h5.749V1553.722z"/>
	<path fill="#ACB5C0" d="M-72.11,1570.878c-1.229-0.958-2.479-1.656-3.75-2.094c-1.271-0.438-2.667-0.656-4.188-0.656
		c-3.583,0-6.323,1.125-8.219,3.375s-2.844,5.5-2.844,9.75v17.406h-5.781v-35h5.781v6.844c0.958-2.479,2.432-4.38,4.422-5.703
		c1.989-1.323,4.349-1.984,7.078-1.984c1.417,0,2.739,0.177,3.969,0.531c1.229,0.354,2.406,0.906,3.531,1.656L-72.11,1570.878
		L-72.11,1570.878z"/>
	<path fill="#ACB5C0" d="M-55.86,1587.378h9.75v8.281l-6.938,13.469l-6.25,0.031l3.438-13.5V1587.378z"/>
	<path fill="#ACB5C0" d="M29.859,1586.003c0,2.583,0.474,4.531,1.422,5.844c0.948,1.312,2.349,1.969,4.203,1.969h6.719v4.844h-7.281
		c-3.438,0-6.099-1.099-7.984-3.297c-1.886-2.198-2.828-5.317-2.828-9.359v-31.656h-9.219v-4.5H29.86L29.859,1586.003
		L29.859,1586.003z"/>
	<path fill="#ACB5C0" d="M80.922,1578.284v2.812H56.016v0.188c-0.167,4.771,0.745,8.198,2.734,10.281s4.797,3.125,8.422,3.125
		c1.833,0,3.75-0.292,5.75-0.875c2-0.583,4.135-1.469,6.406-2.656v5.719c-2.188,0.896-4.297,1.568-6.328,2.016
		c-2.031,0.448-3.995,0.672-5.891,0.672c-5.438,0-9.688-1.63-12.75-4.891c-3.062-3.26-4.594-7.755-4.594-13.484
		c0-5.583,1.5-10.042,4.5-13.375c3-3.333,7-5,12-5c4.458,0,7.974,1.511,10.547,4.531
		C79.385,1570.368,80.755,1574.014,80.922,1578.284z M75.172,1576.597c-0.25-2.417-1.13-4.505-2.641-6.266
		c-1.511-1.76-3.683-2.641-6.516-2.641c-2.771,0-5.052,0.917-6.844,2.75s-2.771,3.896-2.938,6.188L75.172,1576.597z"/>
	<path fill="#ACB5C0" d="M117.297,1576.972v21.688h-5.781v-21.688c0-3.146-0.552-5.458-1.656-6.938
		c-1.104-1.479-2.833-2.219-5.188-2.219c-2.688,0-4.755,0.953-6.203,2.859s-2.172,4.641-2.172,8.203v19.781h-5.75v-35h5.75v5.25
		c1.021-2,2.406-3.516,4.156-4.547s3.823-1.547,6.219-1.547c3.562,0,6.224,1.172,7.984,3.516
		C116.416,1568.675,117.297,1572.222,117.297,1576.972z"/>
	<path fill="#ACB5C0" d="M136.797,1587.378h9.75v8.281l-6.938,13.469l-6.25,0.031l3.438-13.5V1587.378z"/>
	<path fill="#ACB5C0" d="M233.203,1596.878c-1.542,0.896-3.131,1.568-4.766,2.016c-1.636,0.448-3.308,0.672-5.016,0.672
		c-5.417,0-9.651-1.625-12.703-4.875c-3.053-3.25-4.578-7.75-4.578-13.5s1.525-10.25,4.578-13.5
		c3.052-3.25,7.286-4.875,12.703-4.875c1.688,0,3.333,0.219,4.938,0.656c1.604,0.438,3.219,1.115,4.844,2.031v6.031
		c-1.521-1.354-3.047-2.333-4.578-2.938c-1.531-0.604-3.266-0.906-5.203-0.906c-3.604,0-6.375,1.167-8.312,3.5
		c-1.938,2.333-2.906,5.667-2.906,10c0,4.312,0.974,7.641,2.922,9.984c1.947,2.344,4.713,3.516,8.297,3.516
		c2,0,3.791-0.307,5.375-0.922c1.583-0.614,3.052-1.567,4.406-2.859L233.203,1596.878L233.203,1596.878z"/>
	<path fill="#ACB5C0" d="M271.422,1576.972v21.688h-5.781v-21.688c0-3.146-0.553-5.458-1.656-6.938
		c-1.104-1.479-2.834-2.219-5.188-2.219c-2.688,0-4.756,0.953-6.203,2.859c-1.448,1.906-2.172,4.641-2.172,8.203v19.781h-5.75
		v-48.625h5.75v18.875c1.021-2,2.406-3.516,4.156-4.547s3.822-1.547,6.219-1.547c3.562,0,6.224,1.172,7.984,3.516
		C270.541,1568.675,271.422,1572.222,271.422,1576.972z"/>
	<path fill="#ACB5C0" d="M287.985,1546.972h5c3.146,4.917,5.489,9.729,7.031,14.438c1.541,4.708,2.312,9.386,2.312,14.031
		c0,4.688-0.771,9.386-2.312,14.094c-1.542,4.708-3.886,9.521-7.031,14.438h-5c2.771-4.833,4.838-9.614,6.203-14.344
		c1.364-4.729,2.047-9.458,2.047-14.188c0-4.75-0.683-9.489-2.047-14.219C292.823,1556.493,290.755,1551.743,287.985,1546.972z"/>
	<path fill="#ACB5C0" d="M386.422,1600.253v4.5h-2c-5.188,0-8.662-0.771-10.422-2.312c-1.761-1.542-2.641-4.614-2.641-9.219v-6.25
		c0-2.271-0.641-4.229-1.922-5.875s-3.266-2.469-5.953-2.469h-3.812v-4.469h3.812c2.938,0,4.984-0.698,6.141-2.094
		c1.156-1.396,1.734-3.448,1.734-6.156v-8.125c0-4.604,0.88-7.672,2.641-9.203c1.76-1.531,5.234-2.297,10.422-2.297h2v4.469h-2.188
		c-2.917,0-4.818,0.453-5.703,1.359c-0.886,0.906-1.328,2.839-1.328,5.797v8.375c0,3.667-0.719,6.13-2.156,7.391
		c-1.438,1.261-4.24,2.172-8.406,2.734c4.041,0.479,6.812,1.401,8.312,2.766s2.25,3.828,2.25,7.391v6.531
		c0,2.979,0.442,4.917,1.328,5.812c0.885,0.896,2.786,1.344,5.703,1.344H386.422L386.422,1600.253z"/>
	<path fill="#E06C75" d="M-771.36,1641.678v5.625c-1.646-0.958-3.302-1.677-4.969-2.156s-3.365-0.719-5.094-0.719
		c-2.604,0-4.547,0.422-5.828,1.266s-1.922,2.13-1.922,3.859c0,1.562,0.479,2.729,1.438,3.5c0.958,0.771,3.344,1.521,7.156,2.25
		l2.312,0.438c2.854,0.542,5.016,1.625,6.484,3.25c1.468,1.625,2.203,3.74,2.203,6.344c0,3.458-1.229,6.162-3.688,8.109
		c-2.458,1.948-5.875,2.922-10.25,2.922c-1.729,0-3.542-0.183-5.438-0.547s-3.948-0.911-6.156-1.641v-5.938
		c2.146,1.104,4.198,1.933,6.156,2.484c1.958,0.552,3.812,0.828,5.562,0.828c2.542,0,4.51-0.516,5.906-1.547
		s2.094-2.474,2.094-4.328c0-2.667-2.552-4.51-7.656-5.531l-0.25-0.062l-2.156-0.438c-3.312-0.646-5.729-1.734-7.25-3.266
		c-1.521-1.531-2.281-3.62-2.281-6.266c0-3.354,1.135-5.942,3.406-7.766c2.271-1.823,5.51-2.734,9.719-2.734
		c1.875,0,3.677,0.172,5.406,0.516C-774.724,1640.475-773.027,1640.991-771.36,1641.678z"/>
	<path fill="#E06C75" d="M-744.047,1630.522v9.938h13.062v4.469h-13.062v19c0,2.583,0.489,4.386,1.469,5.406
		c0.979,1.021,2.688,1.531,5.125,1.531h6.469v4.594h-7.031c-4.312,0-7.354-0.864-9.125-2.594c-1.771-1.729-2.656-4.708-2.656-8.938
		v-19h-9.344v-4.469h9.344v-9.938L-744.047,1630.522L-744.047,1630.522z"/>
	<path fill="#E06C75" d="M-688.61,1647.678c-1.229-0.958-2.479-1.656-3.75-2.094s-2.667-0.656-4.188-0.656
		c-3.583,0-6.323,1.125-8.219,3.375s-2.844,5.5-2.844,9.75v17.406h-5.781v-35h5.781v6.844c0.958-2.479,2.432-4.38,4.422-5.703
		c1.989-1.323,4.349-1.984,7.078-1.984c1.417,0,2.739,0.177,3.969,0.531c1.229,0.354,2.406,0.906,3.531,1.656L-688.61,1647.678
		L-688.61,1647.678z"/>
	<path fill="#ACB5C0" d="M-644.891,1645.116h33.031v5.281h-33.031V1645.116z M-644.891,1659.835h33.031v5.281h-33.031V1659.835z"/>
	<path fill="#E5C07B" d="M-538.953,1630.397v6.406c-1.917-1.229-3.839-2.156-5.766-2.781s-3.87-0.938-5.828-0.938
		c-2.979,0-5.333,0.693-7.062,2.078c-1.729,1.386-2.594,3.255-2.594,5.609c0,2.062,0.567,3.636,1.703,4.719
		c1.135,1.083,3.255,1.99,6.359,2.719l3.312,0.75c4.375,1.021,7.562,2.625,9.562,4.812s3,5.167,3,8.938
		c0,4.438-1.375,7.823-4.125,10.156s-6.75,3.5-12,3.5c-2.188,0-4.386-0.234-6.594-0.703s-4.427-1.172-6.656-2.109v-6.719
		c2.396,1.521,4.661,2.636,6.797,3.344c2.135,0.708,4.286,1.062,6.453,1.062c3.188,0,5.667-0.713,7.438-2.141
		c1.771-1.427,2.656-3.422,2.656-5.984c0-2.333-0.609-4.114-1.828-5.344c-1.219-1.229-3.339-2.177-6.359-2.844l-3.375-0.781
		c-4.333-0.979-7.479-2.458-9.438-4.438c-1.958-1.979-2.938-4.635-2.938-7.969c0-4.167,1.401-7.505,4.203-10.016
		c2.802-2.51,6.526-3.766,11.172-3.766c1.792,0,3.677,0.203,5.656,0.609C-543.224,1628.975-541.141,1629.585-538.953,1630.397z"/>
	<path fill="#E5C07B" d="M-512.86,1630.522v9.938h13.062v4.469h-13.062v19c0,2.583,0.489,4.386,1.469,5.406
		c0.979,1.021,2.688,1.531,5.125,1.531h6.469v4.594h-7.031c-4.312,0-7.354-0.864-9.125-2.594c-1.771-1.729-2.656-4.708-2.656-8.938
		v-19h-9.344v-4.469h9.344v-9.938L-512.86,1630.522L-512.86,1630.522z"/>
	<path fill="#E5C07B" d="M-457.422,1647.678c-1.229-0.958-2.479-1.656-3.75-2.094s-2.667-0.656-4.188-0.656
		c-3.583,0-6.323,1.125-8.219,3.375s-2.844,5.5-2.844,9.75v17.406h-5.781v-35h5.781v6.844c0.958-2.479,2.432-4.38,4.422-5.703
		c1.989-1.323,4.349-1.984,7.078-1.984c1.417,0,2.739,0.177,3.969,0.531c1.229,0.354,2.406,0.906,3.531,1.656L-457.422,1647.678
		L-457.422,1647.678z"/>
	<path fill="#E5C07B" d="M-445.11,1640.585h14.719v30.406h11.406v4.469h-28.562v-4.469h11.406v-25.938h-8.969V1640.585z
		 M-436.141,1626.991h5.75v7.25h-5.75V1626.991z"/>
	<path fill="#E5C07B" d="M-383.61,1653.772v21.688h-5.781v-21.688c0-3.146-0.552-5.458-1.656-6.938
		c-1.104-1.479-2.833-2.219-5.188-2.219c-2.688,0-4.755,0.953-6.203,2.859s-2.172,4.641-2.172,8.203v19.781h-5.75v-35h5.75v5.25
		c1.021-2,2.406-3.516,4.156-4.547s3.823-1.547,6.219-1.547c3.562,0,6.224,1.172,7.984,3.516
		C-384.49,1645.475-383.61,1649.022-383.61,1653.772z"/>
	<path fill="#E5C07B" d="M-345.36,1673.21c0,5.25-1.24,9.229-3.719,11.938c-2.479,2.708-6.125,4.062-10.938,4.062
		c-1.583,0-3.24-0.146-4.969-0.438s-3.458-0.719-5.188-1.281v-5.688c2.042,0.958,3.896,1.667,5.562,2.125
		c1.667,0.458,3.198,0.688,4.594,0.688c3.104,0,5.364-0.844,6.781-2.531c1.417-1.688,2.125-4.365,2.125-8.031v-0.25v-3.906
		c-0.917,1.958-2.167,3.417-3.75,4.375c-1.583,0.958-3.511,1.438-5.781,1.438c-4.083,0-7.344-1.635-9.781-4.906
		c-2.438-3.271-3.656-7.646-3.656-13.125c0-5.5,1.219-9.885,3.656-13.156c2.438-3.271,5.698-4.906,9.781-4.906
		c2.25,0,4.156,0.448,5.719,1.344c1.562,0.896,2.833,2.281,3.812,4.156v-4.531h5.75v32.623H-345.36z M-351.11,1657.678
		c0-4.312-0.703-7.588-2.109-9.828c-1.406-2.239-3.453-3.359-6.141-3.359c-2.812,0-4.958,1.12-6.438,3.359
		c-1.479,2.24-2.219,5.516-2.219,9.828s0.745,7.599,2.234,9.859c1.489,2.261,3.651,3.391,6.484,3.391
		c2.646,0,4.672-1.135,6.078-3.406C-351.813,1665.252-351.11,1661.97-351.11,1657.678z"/>
	<path fill="#ACB5C0" d="M-312.672,1623.772c-2.771,4.75-4.839,9.484-6.203,14.203c-1.365,4.719-2.047,9.474-2.047,14.266
		c0,4.771,0.682,9.521,2.047,14.25c1.364,4.729,3.432,9.489,6.203,14.281h-5c-3.146-4.958-5.49-9.786-7.031-14.484
		c-1.542-4.698-2.312-9.38-2.312-14.047c0-4.646,0.771-9.323,2.312-14.031c1.542-4.708,3.885-9.521,7.031-14.438H-312.672z"/>
	<path fill="#E06C75" d="M-270.453,1641.678v5.625c-1.646-0.958-3.302-1.677-4.969-2.156s-3.365-0.719-5.094-0.719
		c-2.604,0-4.547,0.422-5.828,1.266s-1.922,2.13-1.922,3.859c0,1.562,0.479,2.729,1.438,3.5c0.958,0.771,3.344,1.521,7.156,2.25
		l2.312,0.438c2.854,0.542,5.016,1.625,6.484,3.25s2.203,3.74,2.203,6.344c0,3.458-1.229,6.162-3.688,8.109
		c-2.458,1.948-5.875,2.922-10.25,2.922c-1.729,0-3.542-0.183-5.438-0.547s-3.948-0.911-6.156-1.641v-5.938
		c2.146,1.104,4.198,1.933,6.156,2.484c1.958,0.552,3.812,0.828,5.562,0.828c2.542,0,4.51-0.516,5.906-1.547
		s2.094-2.474,2.094-4.328c0-2.667-2.552-4.51-7.656-5.531l-0.25-0.062l-2.156-0.438c-3.312-0.646-5.729-1.734-7.25-3.266
		c-1.521-1.531-2.281-3.62-2.281-6.266c0-3.354,1.135-5.942,3.406-7.766c2.271-1.823,5.51-2.734,9.719-2.734
		c1.875,0,3.677,0.172,5.406,0.516C-273.818,1640.475-272.12,1640.991-270.453,1641.678z"/>
	<path fill="#E06C75" d="M-243.141,1630.522v9.938h13.062v4.469h-13.062v19c0,2.583,0.489,4.386,1.469,5.406
		c0.979,1.021,2.688,1.531,5.125,1.531h6.469v4.594h-7.031c-4.312,0-7.354-0.864-9.125-2.594c-1.771-1.729-2.656-4.708-2.656-8.938
		v-19h-9.344v-4.469h9.344v-9.938L-243.141,1630.522L-243.141,1630.522z"/>
	<path fill="#E06C75" d="M-187.703,1647.678c-1.229-0.958-2.479-1.656-3.75-2.094s-2.667-0.656-4.188-0.656
		c-3.583,0-6.323,1.125-8.219,3.375s-2.844,5.5-2.844,9.75v17.406h-5.781v-35h5.781v6.844c0.958-2.479,2.432-4.38,4.422-5.703
		c1.989-1.323,4.349-1.984,7.078-1.984c1.417,0,2.739,0.177,3.969,0.531c1.229,0.354,2.406,0.906,3.531,1.656L-187.703,1647.678
		L-187.703,1647.678z"/>
	<path fill="#ACB5C0" d="M-174.391,1623.772h5c3.146,4.917,5.489,9.729,7.031,14.438c1.542,4.708,2.312,9.386,2.312,14.031
		c0,4.688-0.771,9.386-2.312,14.094c-1.542,4.708-3.886,9.521-7.031,14.438h-5c2.771-4.833,4.838-9.614,6.203-14.344
		c1.364-4.729,2.047-9.458,2.047-14.188c0-4.75-0.683-9.489-2.047-14.219C-169.552,1633.293-171.62,1628.543-174.391,1623.772z"/>
	<path fill="#ACB5C0" d="M-132.922,1664.178h9.75v8.281l-6.156,11.938h-6.688l3.094-11.938V1664.178z M-133.328,1640.491h9.75
		v11.281h-9.75V1640.491z"/>
	<path fill="#C678DD" d="M-798.641,1717.26h5.969l10.156,29.375l10.188-29.375h5.969l-12.438,35h-7.406L-798.641,1717.26z"/>
	<path fill="#C678DD" d="M-730.141,1732.291v19.969h-5.781v-5.188c-1.229,2.083-2.776,3.62-4.641,4.609s-4.13,1.484-6.797,1.484
		c-3.562,0-6.406-1.005-8.531-3.016c-2.125-2.01-3.188-4.703-3.188-8.078c0-3.896,1.307-6.854,3.922-8.875
		c2.614-2.021,6.453-3.031,11.516-3.031h7.719v-0.906c-0.021-2.792-0.729-4.817-2.125-6.078c-1.396-1.26-3.625-1.891-6.688-1.891
		c-1.958,0-3.938,0.281-5.938,0.844s-3.948,1.386-5.844,2.469v-5.75c2.125-0.812,4.161-1.422,6.109-1.828s3.838-0.609,5.672-0.609
		c2.896,0,5.37,0.427,7.422,1.281s3.713,2.136,4.984,3.844c0.792,1.042,1.354,2.328,1.688,3.859
		C-730.308,1726.931-730.141,1729.228-730.141,1732.291z M-741.297,1734.666h-1.906c-3.354,0-5.88,0.589-7.578,1.766
		s-2.547,2.933-2.547,5.266c0,2.104,0.635,3.74,1.906,4.906c1.271,1.167,3.031,1.75,5.281,1.75c3.167,0,5.656-1.099,7.469-3.297
		c1.812-2.198,2.729-5.234,2.75-9.109v-1.281L-741.297,1734.666L-741.297,1734.666z"/>
	<path fill="#C678DD" d="M-688.61,1724.478c-1.229-0.958-2.479-1.656-3.75-2.094s-2.667-0.656-4.188-0.656
		c-3.583,0-6.323,1.125-8.219,3.375s-2.844,5.5-2.844,9.75v17.406h-5.781v-35h5.781v6.844c0.958-2.479,2.432-4.38,4.422-5.703
		c1.989-1.323,4.349-1.984,7.078-1.984c1.417,0,2.739,0.177,3.969,0.531c1.229,0.354,2.406,0.906,3.531,1.656L-688.61,1724.478
		L-688.61,1724.478z"/>
	<path fill="#E06C75" d="M-637.766,1717.385h14.719v30.406h11.406v4.469h-28.562v-4.469h11.406v-25.938h-8.969V1717.385z
		 M-628.797,1703.791h5.75v7.25h-5.75V1703.791z"/>
	<path fill="#ACB5C0" d="M-567.828,1721.916h33.031v5.281h-33.031V1721.916z M-567.828,1736.635h33.031v5.281h-33.031V1736.635z"/>
	<path fill="#ACB5C0" d="M-490.328,1729.635h33.125v5.281h-33.125V1729.635z"/>
	<path fill="#ACB5C0" d="M-446.547,1746.978h9.812v-35.25l-11.75,5.656v-6.062l11.688-5.562h6.312v41.219h9.688v5.281h-25.75
		V1746.978z"/>
	<path fill="#ACB5C0" d="M-402.641,1740.978h9.75v8.281l-6.156,11.938h-6.688l3.094-11.938V1740.978z M-403.047,1717.291h9.75
		v11.281h-9.75V1717.291z"/>
	<path fill="#C678DD" d="M-791.891,1794.185h14.719v30.406h11.406v4.469h-28.562v-4.469h11.406v-25.938h-8.969L-791.891,1794.185
		L-791.891,1794.185z M-782.922,1780.591h5.75v7.25h-5.75V1780.591z"/>
	<path fill="#C678DD" d="M-730.016,1780.435v4.781h-6.531c-2.062,0-3.495,0.422-4.297,1.266s-1.203,2.339-1.203,4.484v3.094h12.031
		v4.469h-12.031v30.531h-5.75v-30.531h-9.344v-4.469h9.344v-2.438c0-3.833,0.88-6.656,2.641-8.469
		c1.76-1.812,4.505-2.719,8.234-2.719L-730.016,1780.435L-730.016,1780.435z"/>
	<path fill="#ACB5C0" d="M-659.453,1777.372c-2.771,4.75-4.839,9.484-6.203,14.203c-1.365,4.719-2.047,9.474-2.047,14.266
		c0,4.771,0.682,9.521,2.047,14.25c1.364,4.729,3.432,9.489,6.203,14.281h-5c-3.146-4.958-5.49-9.786-7.031-14.484
		c-1.542-4.698-2.312-9.38-2.312-14.047c0-4.646,0.771-9.323,2.312-14.031c1.542-4.708,3.885-9.521,7.031-14.438H-659.453z"/>
	<path fill="#ACB5C0" d="M-631.516,1821.122h8.219v7.938h-8.219V1821.122z M-630.578,1782.404h6.344v20.469l-0.656,9.594h-5.031
		l-0.656-9.594L-630.578,1782.404L-630.578,1782.404z"/>
	<path fill="#E06C75" d="M-575.953,1827.279c-1.542,0.896-3.13,1.568-4.766,2.016s-3.308,0.672-5.016,0.672
		c-5.417,0-9.651-1.625-12.703-4.875s-4.578-7.75-4.578-13.5s1.526-10.25,4.578-13.5s7.286-4.875,12.703-4.875
		c1.688,0,3.333,0.219,4.938,0.656c1.604,0.438,3.219,1.115,4.844,2.031v6.031c-1.521-1.354-3.047-2.333-4.578-2.938
		c-1.531-0.604-3.266-0.906-5.203-0.906c-3.604,0-6.375,1.167-8.312,3.5c-1.938,2.333-2.906,5.667-2.906,10
		c0,4.312,0.974,7.641,2.922,9.984c1.948,2.344,4.713,3.516,8.297,3.516c2,0,3.792-0.307,5.375-0.922
		c1.583-0.614,3.052-1.567,4.406-2.859L-575.953,1827.279L-575.953,1827.279z"/>
	<path fill="#E06C75" d="M-537.735,1807.372v21.688h-5.781v-21.688c0-3.146-0.552-5.458-1.656-6.938
		c-1.104-1.479-2.833-2.219-5.188-2.219c-2.688,0-4.755,0.953-6.203,2.859s-2.172,4.641-2.172,8.203v19.781h-5.75v-48.625h5.75
		v18.875c1.021-2,2.406-3.516,4.156-4.547s3.823-1.547,6.219-1.547c3.562,0,6.224,1.172,7.984,3.516
		C-538.615,1799.075-537.735,1802.622-537.735,1807.372z"/>
	<path fill="#ACB5C0" d="M-476.422,1800.716l13,17.469c0.812-1.021,1.417-2.312,1.812-3.875c0.396-1.562,0.594-3.427,0.594-5.594
		c0-0.667-0.031-1.729-0.094-3.188l-0.031-0.219h5.125v1.219c0,3.354-0.386,6.297-1.156,8.828c-0.771,2.531-1.938,4.714-3.5,6.547
		l5.312,7.156h-6.656l-2.438-3.406c-1.729,1.458-3.562,2.542-5.5,3.25s-4.011,1.062-6.219,1.062c-4.5,0-8.219-1.401-11.156-4.203
		c-2.938-2.802-4.406-6.328-4.406-10.578c0-2.854,0.719-5.5,2.156-7.938s3.604-4.698,6.5-6.781c-1.042-1.5-1.812-2.969-2.312-4.406
		s-0.75-2.896-0.75-4.375c0-3.125,1.036-5.594,3.109-7.406s4.911-2.719,8.516-2.719c1.354,0,2.713,0.125,4.078,0.375
		c1.364,0.25,2.776,0.615,4.234,1.094v5.719c-1.229-0.812-2.495-1.411-3.797-1.797c-1.302-0.385-2.672-0.578-4.109-0.578
		c-2.021,0-3.615,0.474-4.781,1.422c-1.167,0.948-1.75,2.224-1.75,3.828c0,1.229,0.302,2.516,0.906,3.859
		C-479.131,1796.825-478.027,1798.571-476.422,1800.716z M-480.516,1803.966c-1.917,1.521-3.349,3.13-4.297,4.828
		s-1.422,3.505-1.422,5.422c0,3.146,1.042,5.755,3.125,7.828s4.739,3.109,7.969,3.109c0.875,0,1.792-0.125,2.75-0.375
		s1.896-0.614,2.812-1.094c0.562-0.312,1.026-0.588,1.391-0.828c0.364-0.239,0.713-0.495,1.047-0.766L-480.516,1803.966z"/>
	<path fill="#ACB5C0" d="M-437.891,1800.716l13,17.469c0.812-1.021,1.417-2.312,1.812-3.875c0.396-1.562,0.594-3.427,0.594-5.594
		c0-0.667-0.031-1.729-0.094-3.188l-0.031-0.219h5.125v1.219c0,3.354-0.386,6.297-1.156,8.828c-0.771,2.531-1.938,4.714-3.5,6.547
		l5.312,7.156h-6.656l-2.438-3.406c-1.729,1.458-3.562,2.542-5.5,3.25s-4.011,1.062-6.219,1.062c-4.5,0-8.219-1.401-11.156-4.203
		c-2.938-2.802-4.406-6.328-4.406-10.578c0-2.854,0.719-5.5,2.156-7.938s3.604-4.698,6.5-6.781c-1.042-1.5-1.812-2.969-2.312-4.406
		s-0.75-2.896-0.75-4.375c0-3.125,1.036-5.594,3.109-7.406s4.911-2.719,8.516-2.719c1.354,0,2.713,0.125,4.078,0.375
		c1.364,0.25,2.776,0.615,4.234,1.094v5.719c-1.229-0.812-2.495-1.411-3.797-1.797c-1.302-0.385-2.672-0.578-4.109-0.578
		c-2.021,0-3.615,0.474-4.781,1.422c-1.167,0.948-1.75,2.224-1.75,3.828c0,1.229,0.302,2.516,0.906,3.859
		C-440.599,1796.825-439.495,1798.571-437.891,1800.716z M-441.985,1803.966c-1.917,1.521-3.349,3.13-4.297,4.828
		s-1.422,3.505-1.422,5.422c0,3.146,1.042,5.755,3.125,7.828s4.739,3.109,7.969,3.109c0.875,0,1.792-0.125,2.75-0.375
		s1.896-0.614,2.812-1.094c0.562-0.312,1.026-0.588,1.391-0.828c0.364-0.239,0.713-0.495,1.047-0.766L-441.985,1803.966z"/>
	<path fill="#E06C75" d="M-344.766,1827.279c-1.542,0.896-3.13,1.568-4.766,2.016s-3.308,0.672-5.016,0.672
		c-5.417,0-9.651-1.625-12.703-4.875s-4.578-7.75-4.578-13.5s1.526-10.25,4.578-13.5s7.286-4.875,12.703-4.875
		c1.688,0,3.333,0.219,4.938,0.656c1.604,0.438,3.219,1.115,4.844,2.031v6.031c-1.521-1.354-3.047-2.333-4.578-2.938
		c-1.531-0.604-3.266-0.906-5.203-0.906c-3.604,0-6.375,1.167-8.312,3.5c-1.938,2.333-2.906,5.667-2.906,10
		c0,4.312,0.974,7.641,2.922,9.984c1.948,2.344,4.713,3.516,8.297,3.516c2,0,3.792-0.307,5.375-0.922
		c1.583-0.614,3.052-1.567,4.406-2.859L-344.766,1827.279L-344.766,1827.279z"/>
	<path fill="#E06C75" d="M-306.547,1807.372v21.688h-5.781v-21.688c0-3.146-0.552-5.458-1.656-6.938
		c-1.104-1.479-2.833-2.219-5.188-2.219c-2.688,0-4.755,0.953-6.203,2.859s-2.172,4.641-2.172,8.203v19.781h-5.75v-48.625h5.75
		v18.875c1.021-2,2.406-3.516,4.156-4.547s3.823-1.547,6.219-1.547c3.562,0,6.224,1.172,7.984,3.516
		C-307.427,1799.075-306.547,1802.622-306.547,1807.372z"/>
	<path fill="#ACB5C0" d="M-246.203,1821.122h8.219v7.938h-8.219V1821.122z M-245.266,1782.404h6.344v20.469l-0.656,9.594h-5.031
		l-0.656-9.594L-245.266,1782.404L-245.266,1782.404z"/>
	<path fill="#ACB5C0" d="M-221.047,1798.716h33.031v5.281h-33.031V1798.716z M-221.047,1813.435h33.031v5.281h-33.031V1813.435z"/>
	<path fill="#ACB5C0" d="M-182.516,1798.716h33.031v5.281h-33.031V1798.716z M-182.516,1813.435h33.031v5.281h-33.031V1813.435z"/>
	<path fill="#ACB5C0" d="M-88.953,1781.716c4.979,0,8.745,2.031,11.297,6.094c2.552,4.062,3.828,10.073,3.828,18.031
		s-1.276,13.969-3.828,18.031s-6.318,6.094-11.297,6.094s-8.74-2.031-11.281-6.094c-2.542-4.062-3.812-10.073-3.812-18.031
		s1.271-13.969,3.812-18.031C-97.693,1783.747-93.933,1781.716-88.953,1781.716z M-88.953,1786.716c-2.938,0-5.13,1.573-6.578,4.719
		s-2.172,7.948-2.172,14.406c0,2.938,0.198,5.688,0.594,8.25l14.562-23.219C-84.131,1788.102-86.266,1786.716-88.953,1786.716z
		 M-88.953,1824.966c2.958,0,5.161-1.573,6.609-4.719s2.172-7.948,2.172-14.406c0-3.438-0.208-6.542-0.625-9.312l-14.875,23.281
		C-94.11,1823.247-91.87,1824.966-88.953,1824.966z"/>
	<path fill="#ACB5C0" d="M-58.797,1777.372h5c3.146,4.917,5.489,9.729,7.031,14.438c1.542,4.708,2.312,9.386,2.312,14.031
		c0,4.688-0.771,9.386-2.312,14.094c-1.542,4.708-3.886,9.521-7.031,14.438h-5c2.771-4.833,4.838-9.614,6.203-14.344
		c1.364-4.729,2.047-9.458,2.047-14.188c0-4.75-0.683-9.489-2.047-14.219C-53.959,1786.893-56.027,1782.143-58.797,1777.372z"/>
	<path fill="#E06C75" d="M40.547,1827.279c-1.542,0.896-3.13,1.568-4.766,2.016s-3.308,0.672-5.016,0.672
		c-5.417,0-9.651-1.625-12.703-4.875s-4.578-7.75-4.578-13.5s1.526-10.25,4.578-13.5s7.286-4.875,12.703-4.875
		c1.688,0,3.333,0.219,4.938,0.656c1.604,0.438,3.219,1.115,4.844,2.031v6.031c-1.521-1.354-3.047-2.333-4.578-2.938
		c-1.531-0.604-3.266-0.906-5.203-0.906c-3.604,0-6.375,1.167-8.312,3.5c-1.938,2.333-2.906,5.667-2.906,10
		c0,4.312,0.974,7.641,2.922,9.984c1.948,2.344,4.713,3.516,8.297,3.516c2,0,3.792-0.307,5.375-0.922
		c1.583-0.614,3.052-1.567,4.406-2.859L40.547,1827.279L40.547,1827.279z"/>
	<path fill="#E06C75" d="M78.765,1807.372v21.688h-5.781v-21.688c0-3.146-0.552-5.458-1.656-6.938
		c-1.104-1.479-2.833-2.219-5.188-2.219c-2.688,0-4.755,0.953-6.203,2.859s-2.172,4.641-2.172,8.203v19.781h-5.75v-48.625h5.75
		v18.875c1.021-2,2.406-3.516,4.156-4.547s3.823-1.547,6.219-1.547c3.562,0,6.224,1.172,7.984,3.516
		C77.885,1799.075,78.765,1802.622,78.765,1807.372z"/>
	<path fill="#ACB5C0" d="M125.734,1798.716h33.032v5.281h-33.032V1798.716z M125.734,1813.435h33.032v5.281h-33.032V1813.435z"/>
	<path fill="#98C379" d="M223.235,1780.372v19.469h-7v-19.469H223.235z"/>
	<path fill="#98C379" d="M300.297,1780.372v19.469h-7v-19.469H300.297z"/>
	<path fill="#ACB5C0" d="M329.453,1817.779h9.75v8.281l-6.156,11.938h-6.688l3.094-11.938V1817.779z M329.047,1794.091h9.75v11.281
		h-9.75V1794.091z"/>
	<path fill="#E06C75" d="M-779.297,1893.203c0,2.583,0.474,4.531,1.422,5.844c0.948,1.312,2.349,1.969,4.203,1.969h6.719v4.844
		h-7.281c-3.438,0-6.099-1.099-7.984-3.297c-1.886-2.198-2.828-5.317-2.828-9.359v-31.656h-9.219v-4.5h14.969L-779.297,1893.203
		L-779.297,1893.203z"/>
	<path fill="#E06C75" d="M-728.235,1885.485v2.812h-24.906v0.188c-0.167,4.771,0.745,8.198,2.734,10.281s4.797,3.125,8.422,3.125
		c1.833,0,3.75-0.292,5.75-0.875s4.135-1.469,6.406-2.656v5.719c-2.188,0.896-4.297,1.568-6.328,2.016s-3.995,0.672-5.891,0.672
		c-5.438,0-9.688-1.63-12.75-4.891c-3.062-3.26-4.594-7.755-4.594-13.484c0-5.583,1.5-10.042,4.5-13.375s7-5,12-5
		c4.458,0,7.974,1.511,10.547,4.531C-729.771,1877.568-728.402,1881.214-728.235,1885.485z M-733.985,1883.797
		c-0.25-2.417-1.13-4.505-2.641-6.266c-1.511-1.76-3.683-2.641-6.516-2.641c-2.771,0-5.052,0.917-6.844,2.75
		s-2.771,3.896-2.938,6.188L-733.985,1883.797z"/>
	<path fill="#E06C75" d="M-691.86,1884.172v21.688h-5.781v-21.688c0-3.146-0.552-5.458-1.656-6.938
		c-1.104-1.479-2.833-2.219-5.188-2.219c-2.688,0-4.755,0.953-6.203,2.859s-2.172,4.641-2.172,8.203v19.781h-5.75v-35h5.75v5.25
		c1.021-2,2.406-3.516,4.156-4.547s3.823-1.547,6.219-1.547c3.562,0,6.224,1.172,7.984,3.516
		C-692.74,1875.875-691.86,1879.422-691.86,1884.172z"/>
	<path fill="#ACB5C0" d="M-644.891,1875.516h33.031v5.281h-33.031V1875.516z M-644.891,1890.235h33.031v5.281h-33.031V1890.235z"/>
	<path fill="#E06C75" d="M-548.11,1893.203c0,2.583,0.474,4.531,1.422,5.844c0.948,1.312,2.349,1.969,4.203,1.969h6.719v4.844
		h-7.281c-3.438,0-6.099-1.099-7.984-3.297c-1.886-2.198-2.828-5.317-2.828-9.359v-31.656h-9.219v-4.5h14.969L-548.11,1893.203
		L-548.11,1893.203z"/>
	<path fill="#E06C75" d="M-497.047,1885.485v2.812h-24.906v0.188c-0.167,4.771,0.745,8.198,2.734,10.281s4.797,3.125,8.422,3.125
		c1.833,0,3.75-0.292,5.75-0.875s4.135-1.469,6.406-2.656v5.719c-2.188,0.896-4.297,1.568-6.328,2.016s-3.995,0.672-5.891,0.672
		c-5.438,0-9.688-1.63-12.75-4.891c-3.062-3.26-4.594-7.755-4.594-13.484c0-5.583,1.5-10.042,4.5-13.375s7-5,12-5
		c4.458,0,7.974,1.511,10.547,4.531C-498.584,1877.568-497.214,1881.214-497.047,1885.485z M-502.797,1883.797
		c-0.25-2.417-1.13-4.505-2.641-6.266c-1.511-1.76-3.683-2.641-6.516-2.641c-2.771,0-5.052,0.917-6.844,2.75
		s-2.771,3.896-2.938,6.188L-502.797,1883.797z"/>
	<path fill="#E06C75" d="M-460.672,1884.172v21.688h-5.781v-21.688c0-3.146-0.552-5.458-1.656-6.938
		c-1.104-1.479-2.833-2.219-5.188-2.219c-2.688,0-4.755,0.953-6.203,2.859s-2.172,4.641-2.172,8.203v19.781h-5.75v-35h5.75v5.25
		c1.021-2,2.406-3.516,4.156-4.547s3.823-1.547,6.219-1.547c3.562,0,6.224,1.172,7.984,3.516
		C-461.552,1875.875-460.672,1879.422-460.672,1884.172z"/>
	<path fill="#ACB5C0" d="M-413.266,1883.235h33.125v5.281h-33.125V1883.235z"/>
	<path fill="#E06C75" d="M-308.985,1872.078v5.625c-1.646-0.958-3.302-1.677-4.969-2.156s-3.365-0.719-5.094-0.719
		c-2.604,0-4.547,0.422-5.828,1.266s-1.922,2.13-1.922,3.859c0,1.562,0.479,2.729,1.438,3.5c0.958,0.771,3.344,1.521,7.156,2.25
		l2.312,0.438c2.854,0.542,5.016,1.625,6.484,3.25s2.203,3.74,2.203,6.344c0,3.458-1.229,6.162-3.688,8.109
		c-2.458,1.948-5.875,2.922-10.25,2.922c-1.729,0-3.542-0.183-5.438-0.547s-3.948-0.911-6.156-1.641v-5.938
		c2.146,1.104,4.198,1.933,6.156,2.484c1.958,0.552,3.812,0.828,5.562,0.828c2.542,0,4.51-0.516,5.906-1.547
		s2.094-2.474,2.094-4.328c0-2.667-2.552-4.51-7.656-5.531l-0.25-0.062l-2.156-0.438c-3.312-0.646-5.729-1.734-7.25-3.266
		c-1.521-1.531-2.281-3.62-2.281-6.266c0-3.354,1.135-5.942,3.406-7.766c2.271-1.823,5.51-2.734,9.719-2.734
		c1.875,0,3.677,0.172,5.406,0.516C-312.349,1870.875-310.652,1871.391-308.985,1872.078z"/>
	<path fill="#E06C75" d="M-281.672,1860.922v9.938h13.062v4.469h-13.062v19c0,2.583,0.489,4.386,1.469,5.406
		c0.979,1.021,2.688,1.531,5.125,1.531h6.469v4.594h-7.031c-4.312,0-7.354-0.864-9.125-2.594c-1.771-1.729-2.656-4.708-2.656-8.938
		v-19h-9.344v-4.469h9.344v-9.938L-281.672,1860.922L-281.672,1860.922z"/>
	<path fill="#E06C75" d="M-226.235,1878.078c-1.229-0.958-2.479-1.656-3.75-2.094s-2.667-0.656-4.188-0.656
		c-3.583,0-6.323,1.125-8.219,3.375s-2.844,5.5-2.844,9.75v17.406h-5.781v-35h5.781v6.844c0.958-2.479,2.432-4.38,4.422-5.703
		c1.989-1.323,4.349-1.984,7.078-1.984c1.417,0,2.739,0.177,3.969,0.531c1.229,0.354,2.406,0.906,3.531,1.656L-226.235,1878.078
		L-226.235,1878.078z"/>
	<path fill="#E06C75" d="M-211.641,1893.235h11v12.625h-11V1893.235z"/>
	<path fill="#E06C75" d="M-162.797,1893.203c0,2.583,0.474,4.531,1.422,5.844c0.948,1.312,2.349,1.969,4.203,1.969h6.719v4.844
		h-7.281c-3.438,0-6.099-1.099-7.984-3.297c-1.886-2.198-2.828-5.317-2.828-9.359v-31.656h-9.219v-4.5h14.969L-162.797,1893.203
		L-162.797,1893.203z"/>
	<path fill="#E06C75" d="M-111.735,1885.485v2.812h-24.906v0.188c-0.167,4.771,0.745,8.198,2.734,10.281s4.797,3.125,8.422,3.125
		c1.833,0,3.75-0.292,5.75-0.875s4.135-1.469,6.406-2.656v5.719c-2.188,0.896-4.297,1.568-6.328,2.016s-3.995,0.672-5.891,0.672
		c-5.438,0-9.688-1.63-12.75-4.891c-3.062-3.26-4.594-7.755-4.594-13.484c0-5.583,1.5-10.042,4.5-13.375s7-5,12-5
		c4.458,0,7.974,1.511,10.547,4.531C-113.271,1877.568-111.902,1881.214-111.735,1885.485z M-117.485,1883.797
		c-0.25-2.417-1.13-4.505-2.641-6.266c-1.511-1.76-3.683-2.641-6.516-2.641c-2.771,0-5.052,0.917-6.844,2.75
		s-2.771,3.896-2.938,6.188L-117.485,1883.797z"/>
	<path fill="#E06C75" d="M-75.36,1884.172v21.688h-5.781v-21.688c0-3.146-0.552-5.458-1.656-6.938
		c-1.104-1.479-2.833-2.219-5.188-2.219c-2.688,0-4.755,0.953-6.203,2.859s-2.172,4.641-2.172,8.203v19.781h-5.75v-35h5.75v5.25
		c1.021-2,2.406-3.516,4.156-4.547s3.823-1.547,6.219-1.547c3.562,0,6.224,1.172,7.984,3.516
		C-76.24,1875.875-75.36,1879.422-75.36,1884.172z"/>
	<path fill="#E06C75" d="M-37.11,1903.61c0,5.25-1.24,9.229-3.719,11.938c-2.479,2.708-6.125,4.062-10.938,4.062
		c-1.583,0-3.24-0.146-4.969-0.438s-3.458-0.719-5.188-1.281v-5.688c2.042,0.958,3.896,1.667,5.562,2.125
		c1.667,0.458,3.198,0.688,4.594,0.688c3.104,0,5.364-0.844,6.781-2.531c1.417-1.688,2.125-4.365,2.125-8.031v-0.25v-3.906
		c-0.917,1.958-2.167,3.417-3.75,4.375s-3.511,1.438-5.781,1.438c-4.083,0-7.344-1.635-9.781-4.906
		c-2.438-3.271-3.656-7.646-3.656-13.125c0-5.5,1.219-9.885,3.656-13.156c2.438-3.271,5.698-4.906,9.781-4.906
		c2.25,0,4.156,0.448,5.719,1.344c1.562,0.896,2.833,2.281,3.812,4.156v-4.531h5.75v32.623H-37.11z M-42.86,1888.078
		c0-4.312-0.703-7.588-2.109-9.828c-1.406-2.239-3.453-3.359-6.141-3.359c-2.812,0-4.958,1.12-6.438,3.359
		c-1.479,2.24-2.219,5.516-2.219,9.828s0.745,7.599,2.234,9.859c1.489,2.261,3.651,3.391,6.484,3.391
		c2.646,0,4.672-1.135,6.078-3.406C-43.563,1895.652-42.86,1892.37-42.86,1888.078z"/>
	<path fill="#E06C75" d="M-11.953,1860.922v9.938H1.109v4.469h-13.062v19c0,2.583,0.489,4.386,1.469,5.406
		c0.979,1.021,2.688,1.531,5.125,1.531H1.11v4.594h-7.031c-4.312,0-7.354-0.864-9.125-2.594c-1.771-1.729-2.656-4.708-2.656-8.938
		v-19h-9.344v-4.469h9.344v-9.938L-11.953,1860.922L-11.953,1860.922z"/>
	<path fill="#E06C75" d="M40.234,1884.172v21.688h-5.781v-21.688c0-3.146-0.552-5.458-1.656-6.938
		c-1.104-1.479-2.833-2.219-5.188-2.219c-2.688,0-4.755,0.953-6.203,2.859s-2.172,4.641-2.172,8.203v19.781h-5.75v-48.625h5.75
		v18.875c1.021-2,2.406-3.516,4.156-4.547s3.823-1.547,6.219-1.547c3.562,0,6.224,1.172,7.984,3.516
		C39.354,1875.875,40.234,1879.422,40.234,1884.172z"/>
	<path fill="#ACB5C0" d="M59.734,1894.578h9.75v8.281l-6.156,11.938H56.64l3.094-11.938V1894.578z M59.328,1870.891h9.75v11.281
		h-9.75V1870.891z"/>
	<path fill="#C678DD" d="M-801.766,1947.659h5.688l6.094,28.281l5-18.062h4.906l5.062,18.062l6.094-28.281h5.688l-8.188,35h-5.5
		l-5.594-19.188l-5.562,19.188h-5.5L-801.766,1947.659z"/>
	<path fill="#C678DD" d="M-730.391,1960.972v21.688h-5.781v-21.688c0-3.146-0.552-5.458-1.656-6.938
		c-1.104-1.479-2.833-2.219-5.188-2.219c-2.688,0-4.755,0.953-6.203,2.859s-2.172,4.641-2.172,8.203v19.781h-5.75v-48.625h5.75
		v18.875c1.021-2,2.406-3.516,4.156-4.547s3.823-1.547,6.219-1.547c3.562,0,6.224,1.172,7.984,3.516
		C-731.271,1952.675-730.391,1956.222-730.391,1960.972z"/>
	<path fill="#C678DD" d="M-714.828,1947.784h14.719v30.406h11.406v4.469h-28.562v-4.469h11.406v-25.938h-8.969V1947.784
		L-714.828,1947.784z M-705.86,1934.191h5.75v7.25h-5.75V1934.191z"/>
	<path fill="#C678DD" d="M-663.703,1970.003c0,2.583,0.474,4.531,1.422,5.844c0.948,1.312,2.349,1.969,4.203,1.969h6.719v4.844
		h-7.281c-3.438,0-6.099-1.099-7.984-3.297c-1.886-2.198-2.828-5.317-2.828-9.359v-31.656h-9.219v-4.5h14.969L-663.703,1970.003
		L-663.703,1970.003z"/>
	<path fill="#C678DD" d="M-612.641,1962.284v2.812h-24.906v0.188c-0.167,4.771,0.745,8.198,2.734,10.281s4.797,3.125,8.422,3.125
		c1.833,0,3.75-0.292,5.75-0.875s4.135-1.469,6.406-2.656v5.719c-2.188,0.896-4.297,1.568-6.328,2.016s-3.995,0.672-5.891,0.672
		c-5.438,0-9.688-1.63-12.75-4.891c-3.062-3.26-4.594-7.755-4.594-13.484c0-5.583,1.5-10.042,4.5-13.375s7-5,12-5
		c4.458,0,7.974,1.511,10.547,4.531C-614.177,1954.368-612.808,1958.014-612.641,1962.284z M-618.391,1960.597
		c-0.25-2.417-1.13-4.505-2.641-6.266c-1.511-1.76-3.683-2.641-6.516-2.641c-2.771,0-5.052,0.917-6.844,2.75
		s-2.771,3.896-2.938,6.188L-618.391,1960.597z"/>
	<path fill="#ACB5C0" d="M-543.86,1930.972c-2.771,4.75-4.839,9.484-6.203,14.203c-1.365,4.719-2.047,9.474-2.047,14.266
		c0,4.771,0.682,9.521,2.047,14.25c1.364,4.729,3.432,9.489,6.203,14.281h-5c-3.146-4.958-5.49-9.786-7.031-14.484
		c-1.542-4.698-2.312-9.38-2.312-14.047c0-4.646,0.771-9.323,2.312-14.031c1.542-4.708,3.885-9.521,7.031-14.438H-543.86z"/>
	<path fill="#ACB5C0" d="M-509.547,1945.847v13.844h13.906v5.281h-13.906v13.844h-5.25v-13.844h-13.875v-5.281h13.875v-13.844
		H-509.547z"/>
	<path fill="#ACB5C0" d="M-471.016,1945.847v13.844h13.906v5.281h-13.906v13.844h-5.25v-13.844h-13.875v-5.281h13.875v-13.844
		H-471.016z"/>
	<path fill="#E06C75" d="M-445.11,1947.784h14.719v30.406h11.406v4.469h-28.562v-4.469h11.406v-25.938h-8.969V1947.784z
		 M-436.141,1934.191h5.75v7.25h-5.75V1934.191z"/>
	<path fill="#ACB5C0" d="M-342.141,1952.628l-26.562,10l26.562,9.906v5.719l-33.031-13.062v-5.188l33.031-13.062V1952.628z"/>
	<path fill="#E06C75" d="M-278.391,1970.003c0,2.583,0.474,4.531,1.422,5.844c0.948,1.312,2.349,1.969,4.203,1.969h6.719v4.844
		h-7.281c-3.438,0-6.099-1.099-7.984-3.297c-1.886-2.198-2.828-5.317-2.828-9.359v-31.656h-9.219v-4.5h14.969L-278.391,1970.003
		L-278.391,1970.003z"/>
	<path fill="#E06C75" d="M-227.328,1962.284v2.812h-24.906v0.188c-0.167,4.771,0.745,8.198,2.734,10.281s4.797,3.125,8.422,3.125
		c1.833,0,3.75-0.292,5.75-0.875s4.135-1.469,6.406-2.656v5.719c-2.188,0.896-4.297,1.568-6.328,2.016s-3.995,0.672-5.891,0.672
		c-5.438,0-9.688-1.63-12.75-4.891c-3.062-3.26-4.594-7.755-4.594-13.484c0-5.583,1.5-10.042,4.5-13.375s7-5,12-5
		c4.458,0,7.974,1.511,10.547,4.531C-228.865,1954.368-227.495,1958.014-227.328,1962.284z M-233.078,1960.597
		c-0.25-2.417-1.13-4.505-2.641-6.266c-1.511-1.76-3.683-2.641-6.516-2.641c-2.771,0-5.052,0.917-6.844,2.75
		s-2.771,3.896-2.938,6.188L-233.078,1960.597z"/>
	<path fill="#E06C75" d="M-190.953,1960.972v21.688h-5.781v-21.688c0-3.146-0.552-5.458-1.656-6.938
		c-1.104-1.479-2.833-2.219-5.188-2.219c-2.688,0-4.755,0.953-6.203,2.859s-2.172,4.641-2.172,8.203v19.781h-5.75v-35h5.75v5.25
		c1.021-2,2.406-3.516,4.156-4.547s3.823-1.547,6.219-1.547c3.562,0,6.224,1.172,7.984,3.516
		C-191.834,1952.675-190.953,1956.222-190.953,1960.972z"/>
	<path fill="#ACB5C0" d="M-174.391,1930.972h5c3.146,4.917,5.489,9.729,7.031,14.438c1.542,4.708,2.312,9.386,2.312,14.031
		c0,4.688-0.771,9.386-2.312,14.094c-1.542,4.708-3.886,9.521-7.031,14.438h-5c2.771-4.833,4.838-9.614,6.203-14.344
		c1.364-4.729,2.047-9.458,2.047-14.188c0-4.75-0.683-9.489-2.047-14.219C-169.552,1940.493-171.62,1935.743-174.391,1930.972z"/>
	<path fill="#ACB5C0" d="M-75.953,1984.253v4.5h-2c-5.188,0-8.662-0.771-10.422-2.312c-1.761-1.542-2.641-4.614-2.641-9.219v-6.25
		c0-2.271-0.641-4.229-1.922-5.875s-3.266-2.469-5.953-2.469h-3.812v-4.469h3.812c2.938,0,4.984-0.698,6.141-2.094
		c1.156-1.396,1.734-3.448,1.734-6.156v-8.125c0-4.604,0.88-7.672,2.641-9.203c1.76-1.531,5.234-2.297,10.422-2.297h2v4.469h-2.188
		c-2.917,0-4.818,0.453-5.703,1.359c-0.886,0.906-1.328,2.839-1.328,5.797v8.375c0,3.667-0.719,6.13-2.156,7.391
		c-1.438,1.261-4.24,2.172-8.406,2.734c4.042,0.479,6.812,1.401,8.312,2.766s2.25,3.828,2.25,7.391v6.531
		c0,2.979,0.442,4.917,1.328,5.812c0.885,0.896,2.786,1.344,5.703,1.344H-75.953z"/>
	<path fill="#E06C75" d="M-694.297,2025.678v5.625c-1.646-0.958-3.302-1.677-4.969-2.156c-1.667-0.479-3.365-0.719-5.094-0.719
		c-2.604,0-4.547,0.422-5.828,1.266s-1.922,2.131-1.922,3.859c0,1.562,0.479,2.729,1.438,3.5c0.958,0.771,3.344,1.521,7.156,2.25
		l2.312,0.438c2.854,0.542,5.016,1.625,6.484,3.25c1.468,1.625,2.203,3.74,2.203,6.344c0,3.459-1.229,6.162-3.688,8.109
		c-2.458,1.948-5.875,2.922-10.25,2.922c-1.729,0-3.542-0.183-5.438-0.547s-3.948-0.911-6.156-1.641v-5.938
		c2.146,1.104,4.198,1.933,6.156,2.484c1.958,0.553,3.812,0.828,5.562,0.828c2.542,0,4.51-0.516,5.906-1.547
		c1.396-1.031,2.094-2.474,2.094-4.328c0-2.666-2.552-4.51-7.656-5.531l-0.25-0.062l-2.156-0.438
		c-3.312-0.646-5.729-1.734-7.25-3.266c-1.521-1.531-2.281-3.619-2.281-6.266c0-3.354,1.135-5.942,3.406-7.766
		c2.271-1.822,5.51-2.734,9.719-2.734c1.875,0,3.677,0.172,5.406,0.516C-697.662,2024.475-695.964,2024.991-694.297,2025.678z"/>
	<path fill="#E06C75" d="M-666.985,2014.522v9.938h13.062v4.469h-13.062v19c0,2.584,0.489,4.386,1.469,5.406
		c0.979,1.021,2.688,1.531,5.125,1.531h6.469v4.594h-7.031c-4.312,0-7.354-0.864-9.125-2.594c-1.771-1.729-2.656-4.708-2.656-8.938
		v-19h-9.344v-4.469h9.344v-9.938L-666.985,2014.522L-666.985,2014.522z"/>
	<path fill="#E06C75" d="M-611.547,2031.678c-1.229-0.958-2.479-1.656-3.75-2.094s-2.667-0.656-4.188-0.656
		c-3.583,0-6.323,1.125-8.219,3.375s-2.844,5.5-2.844,9.75v17.406h-5.781v-35h5.781v6.844c0.958-2.479,2.432-4.38,4.422-5.703
		c1.989-1.322,4.349-1.984,7.078-1.984c1.417,0,2.739,0.178,3.969,0.531c1.229,0.354,2.406,0.906,3.531,1.656L-611.547,2031.678
		L-611.547,2031.678z"/>
	<path fill="#ACB5C0" d="M-567.828,2029.116h33.031v5.281h-33.031V2029.116z M-567.828,2043.835h33.031v5.281h-33.031V2043.835z"/>
	<path fill="#E06C75" d="M-460.36,2057.678c-1.542,0.896-3.13,1.568-4.766,2.016c-1.636,0.447-3.308,0.672-5.016,0.672
		c-5.417,0-9.651-1.625-12.703-4.875s-4.578-7.75-4.578-13.5s1.526-10.25,4.578-13.5s7.286-4.875,12.703-4.875
		c1.688,0,3.333,0.219,4.938,0.656c1.604,0.438,3.219,1.115,4.844,2.031v6.031c-1.521-1.354-3.047-2.333-4.578-2.938
		c-1.531-0.604-3.266-0.906-5.203-0.906c-3.604,0-6.375,1.167-8.312,3.5c-1.938,2.334-2.906,5.667-2.906,10
		c0,4.312,0.974,7.641,2.922,9.984c1.948,2.344,4.713,3.516,8.297,3.516c2,0,3.792-0.307,5.375-0.922
		c1.583-0.614,3.052-1.567,4.406-2.859L-460.36,2057.678L-460.36,2057.678z"/>
	<path fill="#E06C75" d="M-422.141,2037.772v21.688h-5.781v-21.688c0-3.146-0.552-5.458-1.656-6.938
		c-1.104-1.479-2.833-2.219-5.188-2.219c-2.688,0-4.755,0.953-6.203,2.859s-2.172,4.641-2.172,8.203v19.781h-5.75v-48.625h5.75
		v18.875c1.021-2,2.406-3.516,4.156-4.547s3.823-1.547,6.219-1.547c3.562,0,6.224,1.172,7.984,3.516
		C-423.021,2029.475-422.141,2033.022-422.141,2037.772z"/>
	<path fill="#ACB5C0" d="M-355.422,2022.647v13.844h13.906v5.281h-13.906v13.844h-5.25v-13.844h-13.875v-5.281h13.875v-13.844
		H-355.422z"/>
	<path fill="#E06C75" d="M-270.453,2025.678v5.625c-1.646-0.958-3.302-1.677-4.969-2.156s-3.365-0.719-5.094-0.719
		c-2.604,0-4.547,0.422-5.828,1.266s-1.922,2.131-1.922,3.859c0,1.562,0.479,2.729,1.438,3.5c0.958,0.771,3.344,1.521,7.156,2.25
		l2.312,0.438c2.854,0.542,5.016,1.625,6.484,3.25s2.203,3.74,2.203,6.344c0,3.459-1.229,6.162-3.688,8.109
		c-2.458,1.948-5.875,2.922-10.25,2.922c-1.729,0-3.542-0.183-5.438-0.547s-3.948-0.911-6.156-1.641v-5.938
		c2.146,1.104,4.198,1.933,6.156,2.484c1.958,0.553,3.812,0.828,5.562,0.828c2.542,0,4.51-0.516,5.906-1.547
		s2.094-2.474,2.094-4.328c0-2.666-2.552-4.51-7.656-5.531l-0.25-0.062l-2.156-0.438c-3.312-0.646-5.729-1.734-7.25-3.266
		c-1.521-1.531-2.281-3.619-2.281-6.266c0-3.354,1.135-5.942,3.406-7.766c2.271-1.822,5.51-2.734,9.719-2.734
		c1.875,0,3.677,0.172,5.406,0.516C-273.818,2024.475-272.12,2024.991-270.453,2025.678z"/>
	<path fill="#E06C75" d="M-243.141,2014.522v9.938h13.062v4.469h-13.062v19c0,2.584,0.489,4.386,1.469,5.406
		c0.979,1.021,2.688,1.531,5.125,1.531h6.469v4.594h-7.031c-4.312,0-7.354-0.864-9.125-2.594c-1.771-1.729-2.656-4.708-2.656-8.938
		v-19h-9.344v-4.469h9.344v-9.938L-243.141,2014.522L-243.141,2014.522z"/>
	<path fill="#E06C75" d="M-187.703,2031.678c-1.229-0.958-2.479-1.656-3.75-2.094s-2.667-0.656-4.188-0.656
		c-3.583,0-6.323,1.125-8.219,3.375s-2.844,5.5-2.844,9.75v17.406h-5.781v-35h5.781v6.844c0.958-2.479,2.432-4.38,4.422-5.703
		c1.989-1.322,4.349-1.984,7.078-1.984c1.417,0,2.739,0.178,3.969,0.531c1.229,0.354,2.406,0.906,3.531,1.656L-187.703,2031.678
		L-187.703,2031.678z"/>
	<path fill="#ACB5C0" d="M-171.453,2048.178h9.75v8.281l-6.156,11.938h-6.688l3.094-11.938V2048.178z M-171.86,2024.491h9.75v11.281
		h-9.75V2024.491z"/>
	<path fill="#ACB5C0" d="M-792.735,2137.853c2.917,0,4.817-0.448,5.703-1.344c0.885-0.896,1.328-2.833,1.328-5.812v-6.531
		c0-3.562,0.75-6.025,2.25-7.391c1.5-1.364,4.271-2.286,8.312-2.766c-4.167-0.562-6.969-1.474-8.406-2.734
		c-1.438-1.26-2.156-3.724-2.156-7.391v-8.375c0-2.958-0.443-4.891-1.328-5.797c-0.886-0.906-2.787-1.359-5.703-1.359h-2.188v-4.469
		h2c5.188,0,8.661,0.766,10.422,2.297c1.76,1.531,2.641,4.6,2.641,9.203v8.125c0,2.709,0.578,4.761,1.734,6.156
		c1.156,1.396,3.203,2.094,6.141,2.094h3.812v4.469h-3.812c-2.688,0-4.672,0.823-5.953,2.469s-1.922,3.604-1.922,5.875v6.25
		c0,4.604-0.88,7.677-2.641,9.219c-1.761,1.541-5.234,2.312-10.422,2.312h-2v-4.5H-792.735z"/>
	<path fill="#C678DD" d="M-765.672,2185.278c-1.229-0.958-2.479-1.656-3.75-2.094s-2.667-0.656-4.188-0.656
		c-3.583,0-6.323,1.125-8.219,3.375s-2.844,5.5-2.844,9.75v17.406h-5.781v-35h5.781v6.844c0.958-2.479,2.432-4.38,4.422-5.703
		c1.989-1.322,4.349-1.984,7.078-1.984c1.417,0,2.739,0.178,3.969,0.531c1.229,0.354,2.406,0.906,3.531,1.656v5.875H-765.672z"/>
	<path fill="#C678DD" d="M-728.235,2192.684v2.812h-24.906v0.188c-0.167,4.771,0.745,8.198,2.734,10.281
		c1.989,2.084,4.797,3.125,8.422,3.125c1.833,0,3.75-0.291,5.75-0.875c2-0.583,4.135-1.469,6.406-2.656v5.719
		c-2.188,0.896-4.297,1.568-6.328,2.016s-3.995,0.672-5.891,0.672c-5.438,0-9.688-1.63-12.75-4.891
		c-3.062-3.26-4.594-7.755-4.594-13.484c0-5.583,1.5-10.041,4.5-13.375c3-3.333,7-5,12-5c4.458,0,7.974,1.511,10.547,4.531
		C-729.771,2184.768-728.402,2188.414-728.235,2192.684z M-733.985,2190.997c-0.25-2.416-1.13-4.505-2.641-6.266
		c-1.511-1.76-3.683-2.641-6.516-2.641c-2.771,0-5.052,0.917-6.844,2.75c-1.792,1.834-2.771,3.896-2.938,6.188L-733.985,2190.997z"
		/>
	<path fill="#C678DD" d="M-705.516,2168.122v9.938h13.062v4.469h-13.062v19c0,2.584,0.489,4.386,1.469,5.406
		c0.979,1.021,2.688,1.531,5.125,1.531h6.469v4.594h-7.031c-4.312,0-7.354-0.864-9.125-2.594c-1.771-1.729-2.656-4.708-2.656-8.938
		v-19h-9.344v-4.469h9.344v-9.938L-705.516,2168.122L-705.516,2168.122z"/>
	<path fill="#C678DD" d="M-680.078,2199.809v-21.688h5.75v21.688c0,3.146,0.557,5.459,1.672,6.938
		c1.114,1.479,2.838,2.219,5.172,2.219c2.708,0,4.781-0.953,6.219-2.859s2.156-4.641,2.156-8.203v-19.781h5.781v34.938h-5.781v-5.25
		c-1.021,2.021-2.412,3.553-4.172,4.594c-1.761,1.041-3.818,1.562-6.172,1.562c-3.583,0-6.25-1.172-8-3.516
		S-680.078,2204.559-680.078,2199.809z"/>
	<path fill="#C678DD" d="M-611.547,2185.278c-1.229-0.958-2.479-1.656-3.75-2.094s-2.667-0.656-4.188-0.656
		c-3.583,0-6.323,1.125-8.219,3.375s-2.844,5.5-2.844,9.75v17.406h-5.781v-35h5.781v6.844c0.958-2.479,2.432-4.38,4.422-5.703
		c1.989-1.322,4.349-1.984,7.078-1.984c1.417,0,2.739,0.178,3.969,0.531c1.229,0.354,2.406,0.906,3.531,1.656L-611.547,2185.278
		L-611.547,2185.278z"/>
	<path fill="#C678DD" d="M-576.266,2191.372v21.688h-5.781v-21.688c0-3.146-0.552-5.458-1.656-6.938
		c-1.104-1.479-2.833-2.219-5.188-2.219c-2.688,0-4.755,0.953-6.203,2.859s-2.172,4.641-2.172,8.203v19.781h-5.75v-35h5.75v5.25
		c1.021-2,2.406-3.516,4.156-4.547s3.823-1.547,6.219-1.547c3.562,0,6.224,1.172,7.984,3.516
		C-577.146,2183.075-576.266,2186.622-576.266,2191.372z"/>
	<path fill="#E06C75" d="M-501.641,2179.278v5.625c-1.646-0.958-3.302-1.677-4.969-2.156s-3.365-0.719-5.094-0.719
		c-2.604,0-4.547,0.422-5.828,1.266s-1.922,2.131-1.922,3.859c0,1.562,0.479,2.729,1.438,3.5c0.958,0.771,3.344,1.521,7.156,2.25
		l2.312,0.438c2.854,0.542,5.016,1.625,6.484,3.25s2.203,3.74,2.203,6.344c0,3.459-1.229,6.162-3.688,8.109
		c-2.458,1.948-5.875,2.922-10.25,2.922c-1.729,0-3.542-0.183-5.438-0.547s-3.948-0.911-6.156-1.641v-5.938
		c2.146,1.104,4.198,1.933,6.156,2.484c1.958,0.553,3.812,0.828,5.562,0.828c2.542,0,4.51-0.516,5.906-1.547
		s2.094-2.474,2.094-4.328c0-2.666-2.552-4.51-7.656-5.531l-0.25-0.062l-2.156-0.438c-3.312-0.646-5.729-1.734-7.25-3.266
		c-1.521-1.531-2.281-3.619-2.281-6.266c0-3.354,1.135-5.942,3.406-7.766c2.271-1.822,5.51-2.734,9.719-2.734
		c1.875,0,3.677,0.172,5.406,0.516C-505.006,2178.075-503.308,2178.591-501.641,2179.278z"/>
	<path fill="#E06C75" d="M-474.328,2168.122v9.938h13.062v4.469h-13.062v19c0,2.584,0.489,4.386,1.469,5.406
		c0.979,1.021,2.688,1.531,5.125,1.531h6.469v4.594h-7.031c-4.312,0-7.354-0.864-9.125-2.594c-1.771-1.729-2.656-4.708-2.656-8.938
		v-19h-9.344v-4.469h9.344v-9.938L-474.328,2168.122L-474.328,2168.122z"/>
	<path fill="#E06C75" d="M-418.891,2185.278c-1.229-0.958-2.479-1.656-3.75-2.094s-2.667-0.656-4.188-0.656
		c-3.583,0-6.323,1.125-8.219,3.375s-2.844,5.5-2.844,9.75v17.406h-5.781v-35h5.781v6.844c0.958-2.479,2.432-4.38,4.422-5.703
		c1.989-1.322,4.349-1.984,7.078-1.984c1.417,0,2.739,0.178,3.969,0.531c1.229,0.354,2.406,0.906,3.531,1.656L-418.891,2185.278
		L-418.891,2185.278z"/>
	<path fill="#ACB5C0" d="M-402.641,2201.778h9.75v8.281l-6.156,11.938h-6.688l3.094-11.938V2201.778z M-403.047,2178.091h9.75
		v11.281h-9.75V2178.091z"/>
	<path fill="#ACB5C0" d="M-869.797,2291.453c2.917,0,4.817-0.448,5.703-1.344c0.885-0.896,1.328-2.833,1.328-5.812v-6.531
		c0-3.562,0.75-6.025,2.25-7.391c1.5-1.364,4.271-2.286,8.312-2.766c-4.167-0.562-6.969-1.474-8.406-2.734
		c-1.438-1.26-2.156-3.724-2.156-7.391v-8.375c0-2.958-0.443-4.891-1.328-5.797c-0.886-0.906-2.787-1.359-5.703-1.359h-2.188v-4.469
		h2c5.188,0,8.661,0.766,10.422,2.297c1.76,1.531,2.641,4.6,2.641,9.203v8.125c0,2.709,0.578,4.761,1.734,6.156
		c1.156,1.396,3.203,2.094,6.141,2.094h3.812v4.469h-3.812c-2.688,0-4.672,0.823-5.953,2.469s-1.922,3.604-1.922,5.875v6.25
		c0,4.604-0.88,7.677-2.641,9.219c-1.761,1.541-5.234,2.312-10.422,2.312h-2v-4.5H-869.797z"/>
</g>
</svg>
