<?xml version="1.0" encoding="utf-8"?>
<!-- Generator: Adobe Illustrator 24.2.1, SVG Export Plug-In . SVG Version: 6.00 Build 0)  -->
<svg version="1.1" id="Livello_1" xmlns="http://www.w3.org/2000/svg" xmlns:xlink="http://www.w3.org/1999/xlink" x="0px" y="0px"
	 viewBox="0 0 54 54" style="enable-background:new 0 0 54 54;" xml:space="preserve">
<style type="text/css">
	.st0{fill:#FFFFFF;}
</style>
<g id="off">
</g>
<g id="on">
	<g id="icon-highlight-on">
		<path id="frame" class="st0" d="M48,12c1.7,0,3,1.3,3,3v24c0,1.7-1.3,3-3,3H6c-1.7,0-3-1.3-3-3V15c0-1.7,1.3-3,3-3H48 M48,9H6
			c-3.3,0-6,2.7-6,6v24c0,3.3,2.7,6,6,6h42c3.3,0,6-2.7,6-6V15C54,11.7,51.3,9,48,9L48,9z"/>
		<g id="text">
			<rect x="9" y="21" class="st0" width="36" height="3"/>
			<rect x="9" y="30" class="st0" width="36" height="3"/>
		</g>
	</g>
</g>
</svg>
