<?xml version="1.0" encoding="utf-8"?>
<!-- Generator: Adobe Illustrator 17.0.0, SVG Export Plug-In . SVG Version: 6.00 Build 0)  -->
<!DOCTYPE svg PUBLIC "-//W3C//DTD SVG 1.1//EN" "http://www.w3.org/Graphics/SVG/1.1/DTD/svg11.dtd">
<svg version="1.1" xmlns="http://www.w3.org/2000/svg" xmlns:xlink="http://www.w3.org/1999/xlink" x="0px" y="0px" width="18px"
	 height="18px" viewBox="0 0 18 18" enable-background="new 0 0 18 18" xml:space="preserve">
<g id="off">
</g>
<g id="on">
	<g id="icon-case-on">
		<path fill="#FFFFFF" d="M3.859,3.336h1.914L9.344,15H7.711l-0.859-3.039H2.766L1.922,15H0.289L3.859,3.336z M4.812,4.727
			l-1.664,5.969h3.328L4.812,4.727z"/>
		<path fill="#FFFFFF" d="M17.906,10.008V15h-1.445v-1.297c-0.308,0.521-0.694,0.905-1.16,1.152s-1.032,0.371-1.699,0.371
			c-0.891,0-1.602-0.251-2.133-0.754s-0.797-1.176-0.797-2.02c0-0.974,0.327-1.713,0.98-2.219c0.653-0.505,1.613-0.758,2.879-0.758
			h1.93V9.25c-0.005-0.698-0.183-1.204-0.531-1.52c-0.349-0.315-0.906-0.473-1.672-0.473c-0.489,0-0.984,0.07-1.484,0.211
			s-0.987,0.347-1.461,0.617V6.648c0.531-0.203,1.04-0.355,1.527-0.457s0.96-0.152,1.418-0.152c0.724,0,1.343,0.107,1.855,0.32
			c0.513,0.214,0.929,0.534,1.246,0.961c0.198,0.261,0.339,0.582,0.422,0.965S17.906,9.242,17.906,10.008z M15.117,10.602h-0.477
			c-0.839,0-1.47,0.147-1.895,0.441c-0.425,0.295-0.637,0.733-0.637,1.316c0,0.526,0.159,0.935,0.477,1.227s0.758,0.438,1.32,0.438
			c0.792,0,1.414-0.274,1.867-0.824s0.683-1.309,0.688-2.277v-0.32H15.117z"/>
	</g>
</g>
</svg>
