<?xml version="1.0" encoding="utf-8"?>
<!-- Generator: Adobe Illustrator 17.0.0, SVG Export Plug-In . SVG Version: 6.00 Build 0)  -->
<!DOCTYPE svg PUBLIC "-//W3C//DTD SVG 1.1//EN" "http://www.w3.org/Graphics/SVG/1.1/DTD/svg11.dtd" [
	<!ENTITY ns_extend "http://ns.adobe.com/Extensibility/1.0/">
	<!ENTITY ns_ai "http://ns.adobe.com/AdobeIllustrator/10.0/">
	<!ENTITY ns_graphs "http://ns.adobe.com/Graphs/1.0/">
	<!ENTITY ns_vars "http://ns.adobe.com/Variables/1.0/">
	<!ENTITY ns_imrep "http://ns.adobe.com/ImageReplacement/1.0/">
	<!ENTITY ns_sfw "http://ns.adobe.com/SaveForWeb/1.0/">
	<!ENTITY ns_custom "http://ns.adobe.com/GenericCustomNamespace/1.0/">
	<!ENTITY ns_adobe_xpath "http://ns.adobe.com/XPath/1.0/">
]>
<svg version="1.1" xmlns:x="&ns_extend;" xmlns:i="&ns_ai;" xmlns:graph="&ns_graphs;"
	 xmlns="http://www.w3.org/2000/svg" xmlns:xlink="http://www.w3.org/1999/xlink" x="0px" y="0px" width="25px" height="24px"
	 viewBox="0 0 25 24" enable-background="new 0 0 25 24" xml:space="preserve">
<metadata>
	<sfw  xmlns="&ns_sfw;">
		<slices></slices>
		<sliceSourceBounds  width="55" height="136" bottomLeftOrigin="true" x="-13" y="-125"></sliceSourceBounds>
	</sfw>
</metadata>
<g id="btn">
	<g id="btn_1_">
	</g>
	<g id="btn-hover">
	</g>
	<g id="btn-pressed">
	</g>
	<g id="btn-on">
	</g>
</g>
<g id="btn-group-on">
</g>
<g id="btn-group-off">
	<g id="btn-group-left_1_">
		<path fill="#373C48" d="M5,22.5c-1.93,0-3.5-1.57-3.5-3.5V5c0-1.93,1.57-3.5,3.5-3.5h19.5v21H5z"/>
		<path fill="#181A1F" d="M24,2v20H5c-1.654,0-3-1.346-3-3V5c0-1.654,1.346-3,3-3H24 M25,1H5C2.791,1,1,2.791,1,5v14
			c0,2.209,1.791,4,4,4h20V1L25,1z"/>
	</g>
</g>
</svg>
