<?xml version="1.0" encoding="utf-8"?>
<!-- Generator: Adobe Illustrator 24.2.1, SVG Export Plug-In . SVG Version: 6.00 Build 0)  -->
<svg version="1.1" id="Livello_1" xmlns="http://www.w3.org/2000/svg" xmlns:xlink="http://www.w3.org/1999/xlink" x="0px" y="0px"
	 viewBox="0 0 75 72" style="enable-background:new 0 0 75 72;" xml:space="preserve">
<style type="text/css">
	.st0{fill:#528BFF;}
	.st1{fill:#181A1F;}
</style>
<g id="btn">
	<g id="btn_1_">
	</g>
	<g id="btn-hover">
	</g>
	<g id="btn-pressed">
	</g>
	<g id="btn-on">
	</g>
</g>
<g id="btn-group-on">
	<g id="btn-group-right-on">
		<g>
			<path class="st0" d="M1.5,67.5v-63H60c5.8,0,10.5,4.7,10.5,10.5v42c0,5.8-4.7,10.5-10.5,10.5H1.5z"/>
			<path class="st1" d="M60,6c5,0,9,4,9,9v42c0,5-4,9-9,9H3V6L60,6 M60,3H0v66h60c6.6,0,12-5.4,12-12V15C72,8.4,66.6,3,60,3L60,3z"
				/>
		</g>
		<rect y="6" class="st0" width="3" height="60"/>
	</g>
</g>
<g id="btn-group-off">
</g>
</svg>
