<?xml version="1.0" encoding="utf-8"?>
<!-- Generator: Adobe Illustrator 24.2.1, SVG Export Plug-In . SVG Version: 6.00 Build 0)  -->
<svg version="1.1" id="Livello_1" xmlns="http://www.w3.org/2000/svg" xmlns:xlink="http://www.w3.org/1999/xlink" x="0px" y="0px"
	 viewBox="0 0 78 72" style="enable-background:new 0 0 78 72;" xml:space="preserve">
<style type="text/css">
	.st0{fill:#3C424E;}
	.st1{fill:#181A1F;}
</style>
<g id="btn">
	<g id="btn_1_">
	</g>
	<g id="btn-hover">
		<g>
			<path class="st0" d="M15,67.5C9.2,67.5,4.5,62.8,4.5,57V15C4.5,9.2,9.2,4.5,15,4.5h48c5.8,0,10.5,4.7,10.5,10.5v42
				c0,5.8-4.7,10.5-10.5,10.5H15z"/>
			<path class="st1" d="M63,6c5,0,9,4,9,9v42c0,5-4,9-9,9H15c-5,0-9-4-9-9V15c0-5,4-9,9-9H63 M63,3H15C8.4,3,3,8.4,3,15v42
				c0,6.6,5.4,12,12,12h48c6.6,0,12-5.4,12-12V15C75,8.4,69.6,3,63,3L63,3z"/>
		</g>
	</g>
	<g id="btn-pressed">
	</g>
	<g id="btn-on">
	</g>
</g>
<g id="btn-group-on">
</g>
<g id="btn-group-off">
</g>
</svg>
