<?xml version="1.0" encoding="utf-8"?>
<!-- Generator: Adobe Illustrator 17.0.0, SVG Export Plug-In . SVG Version: 6.00 Build 0)  -->
<!DOCTYPE svg PUBLIC "-//W3C//DTD SVG 1.1//EN" "http://www.w3.org/Graphics/SVG/1.1/DTD/svg11.dtd">
<svg version="1.1" xmlns="http://www.w3.org/2000/svg" xmlns:xlink="http://www.w3.org/1999/xlink" x="0px" y="0px" width="18px"
	 height="18px" viewBox="0 0 18 18" enable-background="new 0 0 18 18" xml:space="preserve">
<g id="off">
	<g id="icon-highlight_2_">
		<g>
			<path fill="#9DA5B5" d="M16,4c0.551,0,1,0.449,1,1v8c0,0.551-0.449,1-1,1H2c-0.551,0-1-0.449-1-1V5c0-0.551,0.449-1,1-1H16 M16,3
				H2C0.895,3,0,3.895,0,5v8c0,1.105,0.895,2,2,2h14c1.105,0,2-0.895,2-2V5C18,3.895,17.104,3,16,3L16,3z"/>
		</g>
		<rect x="3" y="7" fill="#9DA5B5" width="12" height="1"/>
		<rect x="3" y="10" fill="#9DA5B5" width="12" height="1"/>
	</g>
</g>
<g id="on">
</g>
</svg>
