<?xml version="1.0" encoding="utf-8"?>
<!-- Generator: Adobe Illustrator 24.2.1, SVG Export Plug-In . SVG Version: 6.00 Build 0)  -->
<svg version="1.1" id="Livello_1" xmlns="http://www.w3.org/2000/svg" xmlns:xlink="http://www.w3.org/1999/xlink" x="0px" y="0px"
	 viewBox="0 0 54 54" style="enable-background:new 0 0 54 54;" xml:space="preserve">
<style type="text/css">
	.st0{fill:#FFFFFF;}
</style>
<g id="off">
</g>
<g id="on">
	<g id="icon-case-on">
		<path class="st0" d="M11.4,9.4h5.7l10.7,35h-4.9l-2.6-9.1H8.1l-2.5,9.1H0.7L11.4,9.4z M14.2,13.6l-5,17.9h10L14.2,13.6z"/>
		<path class="st0" d="M53.5,29.5v15h-4.3v-3.9c-0.9,1.6-2.1,2.7-3.5,3.5c-1.4,0.7-3.1,1.1-5.1,1.1c-2.7,0-4.8-0.8-6.4-2.3
			c-1.6-1.5-2.4-3.5-2.4-6.1c0-2.9,1-5.1,2.9-6.7c2-1.5,4.8-2.3,8.6-2.3h5.8v-0.7c0-2.1-0.5-3.6-1.6-4.6c-1-0.9-2.7-1.4-5-1.4
			c-1.5,0-3,0.2-4.5,0.6c-1.5,0.4-3,1-4.4,1.9v-4.3c1.6-0.6,3.1-1.1,4.6-1.4c1.5-0.3,2.9-0.5,4.3-0.5c2.2,0,4,0.3,5.6,1
			c1.5,0.6,2.8,1.6,3.7,2.9c0.6,0.8,1,1.7,1.3,2.9S53.5,27.2,53.5,29.5z M45.2,31.2h-1.4c-2.5,0-4.4,0.4-5.7,1.3
			c-1.3,0.9-1.9,2.2-1.9,3.9c0,1.6,0.5,2.8,1.4,3.7s2.3,1.3,4,1.3c2.4,0,4.2-0.8,5.6-2.5c1.4-1.6,2-3.9,2.1-6.8v-1L45.2,31.2
			L45.2,31.2z"/>
	</g>
</g>
</svg>
