<?xml version="1.0" encoding="utf-8"?>
<!-- Generator: Adobe Illustrator 17.0.0, SVG Export Plug-In . SVG Version: 6.00 Build 0)  -->
<!DOCTYPE svg PUBLIC "-//W3C//DTD SVG 1.1//EN" "http://www.w3.org/Graphics/SVG/1.1/DTD/svg11.dtd">
<svg version="1.1" id="file_icons" xmlns="http://www.w3.org/2000/svg" xmlns:xlink="http://www.w3.org/1999/xlink" x="0px" y="0px"
	 width="16px" height="16px" viewBox="0 0 16 16" enable-background="new 0 0 16 16" xml:space="preserve">
<path id="file_x5F_type_x5F_default_1_" fill="#9DA5B4" d="M8,5H4V4h4V5z M4,8h7V7H4V8z M4,10h7V9H4V10z M4,12h7v-1H4V12z M14,4.5
	V14c0,0.55-0.45,1-1,1H3c-0.55,0-1-0.45-1-1V2c0-0.55,0.45-1,1-1h7.5L14,4.5z M13,5l-3-3H3v12h10V5z"/>
</svg>
