<?xml version="1.0" encoding="utf-8"?>
<!-- Generator: Adobe Illustrator 24.2.1, SVG Export Plug-In . SVG Version: 6.00 Build 0)  -->
<svg version="1.1" id="Livello_1" xmlns="http://www.w3.org/2000/svg" xmlns:xlink="http://www.w3.org/1999/xlink" x="0px" y="0px"
	 viewBox="0 0 48 48" style="enable-background:new 0 0 48 48;" xml:space="preserve">
<style type="text/css">
	.st0{fill:#9DA5B4;}
</style>
<g id="file_icons">
	<g id="file_x5F_type_x5F_markdown_1_">
		<path class="st0" d="M34.5,6c-5.2,0-7.9,2.5-7.9,2.5L24,11.1l-2.6-2.5c0,0-2.6-2.5-7.9-2.5S3,8.5,3,8.5V39c0,0,5.2-2.5,10.5-2.5
			c5.2,0,7.9,2.5,7.9,2.5v3h5.2v-3l0,0c0,0,2.6-2.5,7.9-2.5S45,39,45,39V8.5C45,8.5,39.8,6,34.5,6z M13.5,33.7c-3,0-5.9,0.7-8.1,1.4
			V10.5c1.8-0.7,5-1.7,8.1-1.7c4.2,0,6.3,1.8,6.3,1.9l1.6,1.5v23.6C19.9,34.8,17.3,33.7,13.5,33.7z M42.6,35.1
			c-2.2-0.7-5.1-1.4-8.1-1.4c-3.8,0-6.4,1.1-7.9,2.1V12.2l1.5-1.5c0.1-0.1,2.2-1.9,6.3-1.9c3.1,0,6.3,1,8.1,1.7V35.1z"/>
		<polygon class="st0" points="18.8,17.5 13.5,17.5 8.2,17.5 8.2,14.2 13.5,14.2 18.8,14.2 		"/>
		<rect x="8.2" y="20.7" class="st0" width="10.5" height="3.3"/>
		<rect x="8.2" y="27.3" class="st0" width="10.5" height="3.3"/>
		<rect x="29.2" y="14.2" class="st0" width="10.5" height="3.3"/>
		<rect x="29.2" y="20.7" class="st0" width="10.5" height="3.3"/>
		<rect x="29.2" y="27.3" class="st0" width="10.5" height="3.3"/>
	</g>
</g>
</svg>
