<?xml version="1.0" encoding="utf-8"?>
<!-- Generator: Adobe Illustrator 24.2.1, SVG Export Plug-In . SVG Version: 6.00 Build 0)  -->
<svg version="1.1" id="file_icons" xmlns="http://www.w3.org/2000/svg" xmlns:xlink="http://www.w3.org/1999/xlink" x="0px" y="0px"
	 viewBox="0 0 48 48" style="enable-background:new 0 0 48 48;" xml:space="preserve">
<style type="text/css">
	.st0{fill:#9DA5B4;}
</style>
<g id="file_x5F_type_x5F_script">
	<path id="Shape_4_" class="st0" d="M31.5,3H9C7.4,3,6,4.4,6,6v36c0,1.7,1.4,3,3,3h30c1.7,0,3-1.3,3-3V13.5L31.5,3L31.5,3z M39,42H9
		V6h21l9,9V42L39,42z M14,15l10,9l-10,9l-2-3.5l6-5.5l-6-5.4L14,15L14,15z M36,30H24v3h12V30z"/>
</g>
</svg>
