<?xml version="1.0" encoding="utf-8"?>
<!-- Generator: Adobe Illustrator 24.2.1, SVG Export Plug-In . SVG Version: 6.00 Build 0)  -->
<svg version="1.1" id="file_icons" xmlns="http://www.w3.org/2000/svg" xmlns:xlink="http://www.w3.org/1999/xlink" x="0px" y="0px"
	 viewBox="0 0 48 48" style="enable-background:new 0 0 48 48;" xml:space="preserve">
<style type="text/css">
	.st0{fill:#9DA5B4;}
</style>
<g id="file_x5F_type_x5F_source">
	<path id="Shape_1_" class="st0" d="M31.5,3H9C7.4,3,6,4.4,6,6v36c0,1.7,1.4,3,3,3h30c1.7,0,3-1.3,3-3V13.5L31.5,3L31.5,3z M39,42H9
		V6h21l9,9V42L39,42z M21,20.9l-4.5,4.6L21,30l-1.5,3L12,25.5l7.5-7.5L21,20.9L21,20.9z M28.5,18l7.5,7.5L28.5,33L27,30.1l4.5-4.6
		L27,21L28.5,18L28.5,18z"/>
</g>
</svg>
