<?xml version="1.0" encoding="utf-8"?>
<!-- Generator: Adobe Illustrator 17.0.0, SVG Export Plug-In . SVG Version: 6.00 Build 0)  -->
<!DOCTYPE svg PUBLIC "-//W3C//DTD SVG 1.1//EN" "http://www.w3.org/Graphics/SVG/1.1/DTD/svg11.dtd">
<svg version="1.1" id="file_icons" xmlns="http://www.w3.org/2000/svg" xmlns:xlink="http://www.w3.org/1999/xlink" x="0px" y="0px"
	 width="16px" height="16px" viewBox="0 0 16 16" enable-background="new 0 0 16 16" xml:space="preserve">
<g id="file_x5F_type_x5F_source">
	<path id="Shape_1_" fill="#9DA5B4" d="M10.5,1H3C2.45,1,2,1.45,2,2v12c0,0.55,0.45,1,1,1h10c0.55,0,1-0.45,1-1V4.5L10.5,1L10.5,1z
		 M13,14H3V2h7l3,3V14L13,14z M7,6.98L5.5,8.5L7,10l-0.5,1L4,8.5L6.5,6L7,6.98L7,6.98z M9.5,6L12,8.5L9.5,11L9,10.02l1.5-1.52L9,7
		L9.5,6L9.5,6z"/>
</g>
</svg>
