<?xml version="1.0" encoding="utf-8"?>
<!-- Generator: Adobe Illustrator 24.2.1, SVG Export Plug-In . SVG Version: 6.00 Build 0)  -->
<svg version="1.1" id="file_icons" xmlns="http://www.w3.org/2000/svg" xmlns:xlink="http://www.w3.org/1999/xlink" x="0px" y="0px"
	 viewBox="0 0 48 48" style="enable-background:new 0 0 48 48;" xml:space="preserve">
<style type="text/css">
	.st0{fill:#9DA5B4;}
</style>
<path id="file_x5F_type_x5F_text" class="st0" d="M24,15H12v-3h12V15z M12,24h21v-3H12V24z M12,30h21v-3H12V30z M12,36h21v-3H12V36z
	 M42,13.5V42c0,1.7-1.3,3-3,3H9c-1.6,0-3-1.3-3-3V6c0-1.6,1.4-3,3-3h22.5L42,13.5z M39,15l-9-9H9v36h30V15z"/>
</svg>
