<?xml version="1.0" encoding="utf-8"?>
<!-- Generator: Adobe Illustrator 17.0.0, SVG Export Plug-In . SVG Version: 6.00 Build 0)  -->
<!DOCTYPE svg PUBLIC "-//W3C//DTD SVG 1.1//EN" "http://www.w3.org/Graphics/SVG/1.1/DTD/svg11.dtd">
<svg version="1.1" id="Livello_1" xmlns="http://www.w3.org/2000/svg" xmlns:xlink="http://www.w3.org/1999/xlink" x="0px" y="0px"
	 width="16px" height="16px" viewBox="0 0 16 16" enable-background="new 0 0 16 16" xml:space="preserve">
<g id="file_icons">
	<g id="file_x5F_type_x5F_markdown_1_">
		<path fill="#9DA5B4" d="M11.5,2C9.75,2,8.875,2.847,8.875,2.847L8,3.692L7.125,2.847C7.125,2.847,6.25,2,4.5,2S1,2.847,1,2.847
			v10.154c0,0,1.75-0.847,3.5-0.847c1.749,0,2.624,0.845,2.625,0.847V14h1.75v-1l0,0c0,0,0.875-0.847,2.625-0.847S15,13,15,13V2.847
			C15,2.847,13.25,2,11.5,2z M4.5,11.233c-0.995,0-1.977,0.243-2.695,0.48V3.487C2.402,3.258,3.458,2.92,4.5,2.92
			c1.396,0,2.086,0.612,2.105,0.628l0.52,0.503v7.872C6.62,11.614,5.762,11.233,4.5,11.233z M14.195,11.715
			c-0.718-0.237-1.7-0.48-2.695-0.48c-1.263,0-2.12,0.38-2.625,0.688V4.051l0.51-0.493C9.414,3.532,10.104,2.92,11.5,2.92
			c1.036,0,2.097,0.339,2.695,0.568V11.715z"/>
		<polygon fill="#9DA5B4" points="6.25,5.818 4.5,5.818 2.75,5.818 2.75,4.727 4.5,4.727 6.25,4.727 		"/>
		<rect x="2.75" y="6.909" fill="#9DA5B4" width="3.5" height="1.091"/>
		<rect x="2.75" y="9.091" fill="#9DA5B4" width="3.5" height="1.091"/>
		<rect x="9.75" y="4.727" fill="#9DA5B4" width="3.5" height="1.091"/>
		<rect x="9.75" y="6.909" fill="#9DA5B4" width="3.5" height="1.091"/>
		<rect x="9.75" y="9.091" fill="#9DA5B4" width="3.5" height="1.091"/>
	</g>
</g>
</svg>
