<?xml version="1.0" encoding="utf-8"?>
<!-- Generator: Adobe Illustrator 17.0.0, SVG Export Plug-In . SVG Version: 6.00 Build 0)  -->
<!DOCTYPE svg PUBLIC "-//W3C//DTD SVG 1.1//EN" "http://www.w3.org/Graphics/SVG/1.1/DTD/svg11.dtd">
<svg version="1.1" id="file_icons" xmlns="http://www.w3.org/2000/svg" xmlns:xlink="http://www.w3.org/1999/xlink" x="0px" y="0px"
	 width="16px" height="16px" viewBox="0 0 16 16" enable-background="new 0 0 16 16" xml:space="preserve">
<g id="file_x5F_type_x5F_script">
	<path id="Shape_4_" fill="#9DA5B4" d="M10.5,1H3C2.45,1,2,1.45,2,2v12c0,0.55,0.45,1,1,1h10c0.55,0,1-0.45,1-1V4.5L10.5,1L10.5,1z
		 M13,14H3V2h7l3,3V14L13,14z M4.667,5L8,8l-3.333,3L4,9.824L6,8L4,6.2L4.667,5L4.667,5z M12,10H8v1h4V10z"/>
</g>
</svg>
